<svg xmlns="http://www.w3.org/2000/svg" xmlns:xlink="http://www.w3.org/1999/xlink" width="757.8" height="458.283" viewBox="0 0 757.8 458.283">
  <defs>
    <clipPath id="clip-path">
      <rect id="Rectangle_1708" data-name="Rectangle 1708" width="757.8" height="458.283" fill="none"/>
    </clipPath>
  </defs>
  <g id="Group_605" data-name="Group 605" transform="translate(0 0)">
    <g id="Group_604" data-name="Group 604" transform="translate(0 0)" clip-path="url(#clip-path)">
      <path id="Path_3348" data-name="Path 3348" d="M90.426,385.026q.112-77.026.23-154.052c3.834-2.845,7.673-2.655,11.507,0,2.207,3.546,1.632,7.535,1.638,11.386.052,32.762.006,65.531.034,98.293.011,10.254.247,10.507,10.277,10.507q96.985.034,193.971.006c9.846-.006,10.2-.322,10.2-9.875q.043-148.819.006-297.644c-.006-9.662-.345-9.978-10.093-9.984q-97.33-.034-194.66-.006a27.49,27.49,0,0,0-7.489.6c-3.144,1.546-2.443,4.483-2.541,7.11-.345,9.432-3.431,11.662-12.864,9.265,0-11.691.149-23.388-.092-35.073-.08-3.874.983-5.041,4.955-5.035q116.3.172,232.6-.052c5.96-.017,4.673,3.362,4.673,6.581q.009,187.746-.006,375.5c0,.684.057,1.374.086,2.058-3.207,4.65-8.305,2.9-12.547,3.311-5.886.563-11.881.322-17.835.328q-97.166.017-194.344.006a57.7,57.7,0,0,1-10.955-.581c-7.972-1.529-9.645-4.69-6.748-12.657" transform="translate(423.024 49.741)" fill="#806534"/>
      <path id="Path_3349" data-name="Path 3349" d="M117.346.016Q155.178.007,193,.021c12.2.017,20.755,8.409,20.778,20.41.04,22.681-.23,45.367.08,68.048.178,12.766-9.725,20.979-21.416,21.439-6.409.247-12.841.149-19.255-.011-3.253-.08-5.173,1.178-6.121,4.248A79.893,79.893,0,0,1,156.73,136.1c-3.121,4.575-7.886,6.374-11.34,10.133-3.431,3.719-8.133,6.271-12.283,9.334-1.127.828-2.506,1.8-3.707.759-1.753-1.523.029-2.995.793-4.161,1.971-3.018,4.661-5.633,6.271-8.811,4.782-9.455,4.972-19.468,3.081-29.739-.931-5.07-4.65-3.6-7.472-3.615q-42.988-.164-85.975-.017a32.555,32.555,0,0,1-12.691-2.219c-7.9-3.2-12.513-9.024-12.53-17.456q-.095-35.056.011-70.112C20.933,8.43,29.635.056,41.688.033q37.823-.06,75.658-.017" transform="translate(98.863 0)" fill="#bdaf95"/>
      <path id="Path_3350" data-name="Path 3350" d="M140.692,51.777c5.386,24.066,10.978,48.092,16.094,72.215,4.644,21.916,7.869,44.091,10.576,66.335,1.69,5.127-.667,7.087-5.558,7.524-9.777.868-19.433,2.92-29.285,3.15-4.495-.546-4.161-4.173-4.564-7.265-1.828-14.065-2.167-28.256-3.523-42.367-1.736-18.077-5.914-35.654-10.013-53.259-.822-3.535-1.868-7.041-1.293-10.737-.287,12.49-1.023,24.963-1.627,37.435-1.115,23.1-4.294,45.994-5.949,69.025-.391,5.506-3.656,8.116-9.087,8.208-10.358.046-20.709.316-31.061-.121-5.909-.69-5.909-4.679-5.087-9.116,2.374-12.829,4.989-25.618,7.489-38.424a202.5,202.5,0,0,0,3.673-42.309c-.282-17.163-.109-34.337-.034-51.506.017-3.38-.46-6.943,2.144-9.8,2.454-1.592,5.242-1.54,7.984-1.552q25.106-.095,50.213.011c3.161.017,6.524-.322,8.909,2.552" transform="translate(284.53 233.415)" fill="#272727"/>
      <path id="Path_3351" data-name="Path 3351" d="M48.755,173.116c3.512-16.054,10.139-31.245,13.059-47.483.471-2.638.741-4.891-.759-7.15,2.9-2.747,6.564-1.178,9.852-1.69,7.484-1.167,11.777-8.432,7.478-14.588-3.84-5.483-4.65-11.4-5.15-17.445a210.667,210.667,0,0,1-.1-26.739c.2-4.4,1.3-8.639,5.656-11.087,18.491-1.121,36.976-2.138,55.426.529,3.794,2.995,3.334,7.305,3.357,11.363.092,17.611.3,35.228-.023,52.834-.569,30.883,4.058,61.593,2.816,92.482-.144,3.638.345,7.34-1.069,10.846-1.65,2.747-4.351,1.73-6.708,1.782-8.765.178-17.588-.954-26.273,1.1a2.044,2.044,0,0,1-1.989-1c-1.512-3.006-1.109-6.259-1.121-9.438-.046-18.088.092-36.177-.063-54.265-.086-10.645-2.621-21.215-1.161-29.245.2,6.507-3.087,14.9-6.42,23.175-8.03,19.956-16.674,39.648-26.273,58.909-.92,1.839-1.8,3.719-3.529,5.006-8.173,1.529-14.979-2.765-22.227-5.23-1.707-1.6-1.713-3.65-1.448-5.736.983-7.725,2.627-15.347,3.564-23.077.218-1.788.655-3.719,3.1-3.857" transform="translate(199.222 217.318)" fill="#ffc582"/>
      <path id="Path_3352" data-name="Path 3352" d="M127.445,67.737,144.033,128.3c2.006,2.908.011,5.305-1.333,7.466a191.278,191.278,0,0,1-19.123,25.555c-1.874,2.115-3.914,4.73-7.5,2.983a10.243,10.243,0,0,1-2.408-6.317c-.764-16.9-7.616-31.975-14.232-47.069-3.834-8.742-8.4-17.169-12.438-26.405C84.072,95.671,81.21,106.287,78.83,117c-6.07,27.25-20.956,50.1-35.826,72.974-3.184,4.9-5.179,10.886-10.967,13.783a72.348,72.348,0,0,1-30.164-8.081C9.587,180.118,17.358,164.593,25,149c3.121-6.369,5.587-13.082,8.99-19.284C47.378,105.345,45.832,79,44.642,52.655c-.506-1.408-.471-2.673.937-3.587,2.983-1.575,6.236-1.3,9.426-1.3q30.254-.06,60.513.012c3.61.012,7.426-.558,10.438,2.3l.236-.178c1.724,5.851-.586,11.99,1.253,17.835" transform="translate(8.893 226.612)" fill="#272727"/>
      <path id="Path_3353" data-name="Path 3353" d="M513.45,77.577c.052,2.058.264,4.121.126,6.162-.207,2.989,1.121,4.121,3.989,4.087,2.282-.029,4.57.316,6.851.316q111.349.017,222.7-.023c2.937,0,5.978.6,8.765-.948,5.15,4.995-1.575,3.822-2.523,3.954-8.817,1.207-17.669,2.236-26.549,2.845-7.294.5-14.605.828-21.9,1.259-17.37,1.023-34.8.81-52.178,1.736-23.595,1.265-47.235.466-70.79,1.627-31.872,1.575-63.732.224-95.58,1.19-52.27,1.592-104.564,1.535-156.834.879-47.85-.6-95.706-.523-143.545-1.408-33.2-.615-66.416-1.362-99.586-2.736C60.168,95.43,33.82,95.332,7.754,91.384A18.117,18.117,0,0,1,0,88.648,61.828,61.828,0,0,1,16.427,85.86c3.4-.19,6.938.264,9.754-2.345,2.1-2.535,4.167-.558,6.018.253,4.552,2.006,9.3,3.437,14,5,4.38,1.46,8.742,2.546,8.484-4.679-.046-1.253,1.069-1.874,2.155-2.339,10.2-.759,20.353-2.408,30.584-2.075,12.524.414,24.963-1.115,37.458-1.075a5.576,5.576,0,0,1,4.087,2.443C131.7,92.309,131.7,92.338,144.057,92.2c9.38-.109,18.767.069,28.153-.121,1.742-.034,4.127.322,4.673-1.885.6-2.449-1.69-3.357-3.385-4.535-2.4-1.667-7.334-.736-6.357-6,4.1-2.322,8.656-2.77,13.191-2.7,10.185.178,20.4-.966,30.549.73a4.608,4.608,0,0,1,1.926,1.466c3.288,11.559,3.288,11.72,16.123,11.507,10.409-.172,20.864.994,31.216-.856,2.96-1.971,7.024,2.161,9.426-1.328,2.127-3.092-.856-5.937-1.535-8.909-.351-1.54.414-2.592,2.029-2.949,8.777-.379,17.519-1.494,26.319-1.04,2.678.138,5.455-.218,7.771,1.638a4.825,4.825,0,0,0,.575.391c1.776,2.1,1.736,4.7,1.655,7.167-.178,5.3,2.374,7.265,7.484,7.259,12.093-.006,24.192-.161,36.28.075,12.754-1.828,25.589-1.224,38.407-1.27,2.161-.012,5.265,1.173,6.144-1.483,1.023-3.1-1.9-4.794-4.179-6.323-1.9-1.27-4.225-1.88-5.817-3.592-.845-.908-1.15-1.989.517-2.535,9.346-2.282,18.778-1.995,28.147-.575,2.293.345,4.443.029,6.639.161,4.294,1.621,4.167,5.524,4.564,9.081.316,2.822,1.035,5.035,4.564,4.213,13.277-3.1,26.635-5.868,39.792-9.461,1.776-.483,3.006-2.035,4.707-2.713,13.272-.42,26.549,3.293,39.815-.04" transform="translate(0 357.19)" fill="rgba(189,175,149,0.5)"/>
      <path id="Path_3354" data-name="Path 3354" d="M108.707,120.918q-5.613.009-11.225.011l-.437-.04c-1.19-.983-3.207-1-3.707-2.736-2.115-7.374-4.615-14.657-5.627-22.3-.4-3.081,1.661-4.409,4.305-5.081,1.874-.385,4.006.023,5.42-1.759,2.96-2.552,6.7-2.667,10.277-3.288a32.5,32.5,0,0,0,9.231-1.742,13.941,13.941,0,0,1,1.862-.448c7.558-.69,13.352-3.42,14.042-12.088.414-.282.971-.494,1.236-.224,5.317,5.575,7.231,5.9,15.651,2.282,11.789-5.07,22.089-12.484,32.084-20.393,8.363-7.708,18.238-13.042,28.469-17.686,9.633-4.368,22.445-.362,28.693,8.547,7.053,10.059,6.495,21.893-1.793,30.153-12.134,12.1-26.48,21.14-41.729,28.7-5.334,2.65-10.409,5.788-15.858,8.2-3.339,1.483-4.564,4.265-4.61,7.771-.052,4.121.144,8.254-.109,12.363-.144,2.351.592,5.213-2.518,6.484-4.305-3.868-2.3-9-2.483-13.565-.322-8.225-.069-8.168-7.754-6.317-16.864,4.064-34.073,3.518-51.224,3.788a3.333,3.333,0,0,1-2.2-.644" transform="translate(416.193 159.785)" fill="rgba(209,193,150,0.76)"/>
      <path id="Path_3355" data-name="Path 3355" d="M109.828,138.675c-1.908,10.754-4.943,21.359-4.34,32.446,1.489,5.328-.391,9.886-3.27,14.226-9.363,1.356-18.732,2.937-27.9-.983-.236-.006-.471,0-.7.017-1.92-2.661-1.345-5.621-1.127-8.587.891-12.047,2.224-24.072,2.3-36.171.1-15.513-4.909-29.084-15.5-40.5-6.472-13.18-16.531-23.7-25.871-34.757-2.408-2.857-6.19-5.265-3.242-9.9a3.421,3.421,0,0,1,3.006-1.4c15.485,2.655,31.1.655,46.643,1.316,2.311.1,4.587.207,6.587,1.569,8.811,17.266,17.071,34.82,22.7,53.391,2.88,9.507.333,19.548.718,29.337" transform="translate(138.149 251.76)" fill="#bfac8f"/>
      <path id="Path_3356" data-name="Path 3356" d="M131.264,115.261c-22.37-1.2-44.752-.546-67.128-.339-3.845-5.788-1.253-12.346-2.219-18.479a3.756,3.756,0,0,1,.293-2c8.857-13.691,13.272-29.3,19.226-44.252a8.032,8.032,0,0,1,2.638-3.1c3.506-1.379,6.392-3.719,9.288-6.058,6.472-1.115,13.2-1.31,18.893-5.242a21.468,21.468,0,0,1,10.961,3.454c6.386,3.426,8.122,9.674,9.72,16.008-1.627,6.69-3.351,13.341-9.467,17.611-4.328,3.023-1.144,5.443.632,7.909,5.4,7.5,6.162,7.587,12.674,1.69,3.851-3.483,7.892-5.472,12.68-1.627-.983,5.432-3.437,10.352-5.328,15.473-1.012,2.724-2.862,5.673-5.3,5.891-9.208.822-6.961,7.639-7.564,13.059" transform="translate(293.957 169.931)" fill="rgba(156,140,34,0.68)"/>
      <path id="Path_3357" data-name="Path 3357" d="M92.112,138.947c-16,.08-32.009-.006-48,.4-2.828.069-5.644-4.2-8.426-.109a15.956,15.956,0,0,1-6.064-.264c-2.414-27.779-3.661-55.524,5.817-82.395,3.179-9.018,7.167-17.95,18.019-20.537,8.214-2.052,13.369,2.609,18.071,8.248A36.841,36.841,0,0,1,86.56,62.547c1.46,7.007-1.684,10.99-8.65,10.973-3.512-2.6-5.817-6.392-9.081-9.26-5.38-4.719-12.478-5.116-17.468-.885-6.018,5.1-6.846,11.622-2.3,18.186,3.15,4.547,7.357,8.093,11.26,11.938,8.921,7.61,16.542,16.99,28.492,20.387,2.661.759,4.213,2.42,3.943,5.495-.339,3.828.391,7.7-.4,11.524q-.121,4.018-.247,8.041" transform="translate(132.448 168.759)" fill="#705225"/>
      <path id="Path_3358" data-name="Path 3358" d="M120.425,94.241,64,94.206c-2.983-3.19-1.8-6.915-.845-10.277,1.253-4.432-.351-6.552-4.271-8.386-4.667-2.178-10.248-2.564-13.921-6.771-1.19-20.491,6.782-30.09,27.2-32.745a15.312,15.312,0,0,1,3.748,1.523c9.766,7.03,19.008,5.363,27.963-1.581,13.323-.172,17.548,2.759,23.371,16.513,1.322,3.133,2.23,6.449,3.328,9.679a3.089,3.089,0,0,1-.8,3.121c-7.553,5.914-7.4,14.369-7.587,22.715-.149,2.2.04,4.506-1.753,6.242" transform="translate(212.924 170.742)" fill="#dbe3c0"/>
      <path id="Path_3359" data-name="Path 3359" d="M108.173,106.229c8.426-14.059,5.4-27.607,3.351-41.039-1.247-8.2-5.012-11.07-13.346-11.093-9.4-.029-18.813-.138-28.222-.1-5.328.017-8.041-2.115-7.92-7.806.213-10.087.259-20.18,0-30.262-.149-5.92,2.9-8.593,8.156-8.627q33.383-.241,66.766.034c4.949.04,7.966,2.736,7.886,8.242-.144,10.087-.126,20.175-.075,30.262.029,5.805-2.972,8.035-8.507,8.208-12.07.385-12.053.489-12.065,12.352-.017,12.869-1.788,25.267-10.047,35.814a8.931,8.931,0,0,1-5.978,4.012" transform="translate(294.506 34.119)" fill="#bdaf95"/>
      <path id="Path_3360" data-name="Path 3360" d="M70.129,54.732c2.144-2.845,4.081-.787,6.058.27-.27,2.1,1.035,3.4,2.374,4.673C88.511,69.141,95.673,80.9,104.6,91.184c1.77,2.04,1.075,3.673.615,5.6,1.5,2.724-.385,4.828-1.391,7.024-6.593,14.4-16.95,26.014-27.923,37.114-3.9,3.949-7.627,7.857-9.1,13.381-3.6-.172-6.346,1.213-8.88,3.891-3.6,3.805-7.053,7.771-11,11.248-2.857,2.517-6.052,3.707-9.283,1.19-5.926-4.615-12.835-7.886-18.18-13.3-.678-3.621,2.334-5.207,4.213-7.34,3.466-3.949,6.225-8.449,9.88-12.231.661-.132,1.575-.034,1.954-.431,10.151-10.616,19.939-21.491,25.48-35.424,5.139-8.444,5.093-18.18,6.713-27.474,1.15-6.507,1.638-13.134,2.426-19.7" transform="translate(91.941 252.998)" fill="#bfac8f"/>
      <path id="Path_3361" data-name="Path 3361" d="M112.387,163.139c-2.351,1.845-5.041,2.081-7.875,1.684-3.271-2.512-2.506-6.19-2.523-9.49-.115-19.652-.034-39.309-.063-58.967-.011-9.662-.04-9.662-9.064-11.7-.862-.9-1.719-1.8-2.575-2.7,2.1-3.27,5.391-5.541,7.4-8.921,3.92-6.6,3.656-8.2-2.742-12.162-3.96-2.454-6.386-5.6-6.363-10.513.04-7.823,4.345-12.03,12.409-11.783,6.271.2,6.679-.374,6.081-6.409-.448-4.524-1.908-8.88-1.977-13.444,2.759-2.575,5.616-1.385,8.208.092,5.552,3.161,11.386,6.012,15.812,10.771,4.96,5.334,11.806,7.817,17.749,11.536,7.581,4.736,14.151,10.8,21.847,15.3q8.139,6.32,5.15,16.18c-2.144,4.84-6.2,6.8-11.156,7.679-4.225.747-8.553.661-12.726,1.788-8.645.937-17.318.448-25.974.42-1.219-.006-2.437.006-3.656.08-12.829,2.495-12.835,2.495-12.835,15.393,0,18,.1,36-.069,53.995-.04,4.656.8,8.541,4.943,11.162" transform="translate(420.559 81.818)" fill="#f2e1d9"/>
      <path id="Path_3362" data-name="Path 3362" d="M41.967,67.786c-5.179-2.242-11.72-2.006-14.674-7.535-2.15-4.018-4.84-4.782-8.656-5.052-13.111-.925-14-1.966-13.99-15.295.006-5.035-.132-10.076.023-15.105.218-7.15,2.5-9.409,9.461-9.432,17.634-.052,35.263.063,52.891-.069,6.294-.046,9.265,2.65,9.133,9-.144,7.087.052,14.186-.075,21.278-.121,6.731-2.8,9.576-9.524,9.743-7.323.178-14.651-.161-21.974-.023-2.569.046-6.15-1.356-7.392,1.851-1.058,2.736,1.391,4.983,3.322,6.966.718.741,2.132,1.109,1.454,3.673" transform="translate(21.817 72.625)" fill="#bdaf95"/>
      <path id="Path_3363" data-name="Path 3363" d="M10.923,122.847c-.2.874-.385,1.742-.581,2.615-1.908-3.414-1.023-7.145-1.058-10.714C9.118,97.879,9.009,81,9.193,64.128a180.591,180.591,0,0,1,1.563-20.37c.54-4.34,2.322-8.317,6.639-10.478,10.524-2.334,13.967-.4,18.594,10.1,3.058,6.949,4.138,14.421,6.024,21.675,2.242,8.662,2.127,8.57,9.616,3.144,2.655-1.926,4.656-5.213,8.633-4.868,1.862,3.9,5.4,6.748,6.869,10.9.057,2.449,1.471,4.558,1.753,6.961-7.173,13.18-18.312,22.123-31.659,28.158-6.369,2.88-13.214-1.839-16.876-10.358a106.836,106.836,0,0,1-8.771-36.05c1.926,16.956.6,36.188.793,55.391a7.673,7.673,0,0,1-1.448,4.512" transform="translate(43.192 153.809)" fill="#bdaf95"/>
      <path id="Path_3364" data-name="Path 3364" d="M9.866,101.46A627.177,627.177,0,0,1,10.476,36.9c1.069,5.012,2.3,9.99,3.161,15.036a114.354,114.354,0,0,0,7.547,25.52c4.374,10.312,11.628,12.45,20.715,5.955,9.656-6.9,18.772-14.525,25.463-24.578.04-1.661.92-3.041,1.5-4.529,1.8-3.23,4.058-4.512,7.259-1.667a32.3,32.3,0,0,1,3.357,6.219,106.424,106.424,0,0,0,9.4,18.744c1.379,2.224,3.592,4.294,2.127,7.374q-.2,8.26-.408,16.519L9.866,101.46" transform="translate(44.249 175.197)" fill="#d1c196"/>
      <path id="Path_3365" data-name="Path 3365" d="M52.552,70.284c6.817.385,7.645-4.5,8.363-9.478,5.075,1.144,6.259-3.253,8.2-6.116,1.6-2.357,2.311-5.305,3.454-7.972,1.046-2.426,2.374-4.466,5.57-3.535,2.954.1,1.885-2.96,3.247-4.156,1.046-.92.126-3.84,3-2.949,2.224,3.121,4.489,6.219,6.673,9.38,2.144,3.1,2.564,6.88.6,9.714-7.4,10.691-6.805,23.79-11.243,35.355-2.759,7.185-4.857,14.594-10.472,20.255-1.925,1.943-1.931,4.449-2.127,6.984-.287,3.805.7,7.748-1.1,11.4,1.638-9.949-1.563-15.577-12.053-19.117-8.593-2.9-15.151-10.668-21.37-17.72A65.808,65.808,0,0,1,50.73,69.773c.46-.391,1.293.034,1.822.512" transform="translate(158.087 170.501)" fill="#f28982"/>
      <path id="Path_3366" data-name="Path 3366" d="M73.179,70.962c2.535-2.851,5.19-5.236,6.736-8.518,2.219-4.707,1.046-7.254-4.127-6.7a65.994,65.994,0,0,1-13.525-.213c-4.064-.4-6.087-2.42-5.989-6.7.167-7.541.2-15.094.052-22.635-.092-4.46,2.311-6.052,6.225-6.472,2.713-.3,5.466-1.2,8.122-.948,13.9,1.293,27.86.443,41.758,1.2,4.4.236,7.449,3.081,7.3,8.277-.161,5.943-.086,11.892.063,17.835.144,5.983-3.27,8.547-8.593,9.455a11.676,11.676,0,0,1-2.058.086c-8.018-.075-16.071-1.724-20.451,8.656-2.19,5.2-8.392,7.857-15.513,6.679" transform="translate(267.165 88.951)" fill="#bdaf95"/>
      <path id="Path_3367" data-name="Path 3367" d="M47.782,41.671c.891.126,1.8.2,2.684.379,13.9,2.845,21.083,10.076,16.347,25.06-5.219,15.852-2.535,31.929-1.339,47.96.063.851.437,2.15,1.035,2.414,8,3.569,4.506,11.11,3.546,15.6-1.213,5.57-8.593,5.047-13.852,5.512-1.977.178-4.023-.4-6.041-.638-3.954-10.11-4.633-20.847-5.322-31.446a308.36,308.36,0,0,1,2.943-64.841" transform="translate(210.11 197.844)" fill="#f17d79"/>
      <path id="Path_3368" data-name="Path 3368" d="M52.885,69.832c-2.535,1.937-5.035,3.92-7.61,5.805-9.294,6.788-9.242,6.765-11.743-4.156C31.75,63.7,30.015,55.911,27.049,48.445c-2.615-6.57-6.805-10.07-14.214-8.214a1.909,1.909,0,0,1-2.293-.971,46.7,46.7,0,0,1,17.778-8.122c10.984,4.42,22.014,5.823,33.153.529,7.093.126,13,3.931,19.382,6.248,2.311.971,5.15,1.9,5.38,4.656.828,9.863,2.362,19.8-1.04,29.526-6.213-1-9.064-5.587-11.415-10.7a51.428,51.428,0,0,1-.345-6.725c-.172-3.661-2.253-5.064-5.7-5.248-3.512-.19-5.65.977-5.782,4.805A28.193,28.193,0,0,1,60.564,61.5a14.436,14.436,0,0,1-7.679,8.329" transform="translate(50.046 147.835)" fill="#d1c196"/>
      <path id="Path_3369" data-name="Path 3369" d="M58.555,93.59c-1.673-10.386.3-19.433,9.49-25.836,3.012,3.385,4.736,1.816,7.489-.966,6.484-6.553,4.983-15.048,6.7-22.767,2.058,2.42,3.736,4.023,5.185-.655,2.8-9.036,2.943-8.99,12.162-8.323,5.207,4.955,7.328,10.564,3.7,17.387C99.485,62.3,94.991,71.9,92.105,82.123c-1.966,6.949-7.041,12.208-10.616,18.284-.828,3.914-4.322,3.575-6.966,3.949-6.369.9-14.019-4.466-15.967-10.766" transform="translate(275.455 165.14)" fill="#f07d78"/>
      <path id="Path_3370" data-name="Path 3370" d="M33.019,66.815c2.834-9.984.856-20.158,1.15-30.239.069-2.4-2.926-2.609-4.069-4.259,11.179,2.724,13.254,12.1,15.013,21.273C47.5,66.057,49.1,78.673,51.332,91.174c1.931,10.8-2.7,15.852-13.749,14.634-.994-.109-2.081.6-3.127.937-3.38-6.156-6.788-12.289-10.122-18.468-1.3-2.408-2.558-4.857-2.736-7.679-1.184-2.7.747-4.242,2.2-5.972,3.207-2.443,5.374-6.121,9.225-7.811" transform="translate(100.801 153.433)" fill="#bdaf95"/>
      <path id="Path_3371" data-name="Path 3371" d="M114.473,33.27c3.4,5.23,2.713,11.4,3.817,17.14,1.178,6.121-3.736,5.006-7.15,4.84-9.237-.431-12.869,3.3-12.013,12.07.477,4.891,4.391,7.1,7.61,7.794,6.61,1.408,5.978,4.029,3.615,8.806-2.638,5.345-4.886,10.725-11.179,12.731C85.492,87.425,84.584,66.7,89.257,52.829c2.621-7.783,8-13.381,12.731-19.588,10.973-2.328,10.909-2.328,11.162-13.611.04-1.822-1.161-4.1,1.2-5.489,3.23,6.357,3.092,12.731.126,19.129" transform="translate(411.674 67.137)" fill="#c7b9b2"/>
      <path id="Path_3372" data-name="Path 3372" d="M46.787,68.631a5.913,5.913,0,0,1-4.65,4.357c-8.271,1.167-16.64,1.546-24.721-1.167-1.506-.5-2.529-2.443-3.782-3.719A15.875,15.875,0,0,0,18.887,44.87c-3.811-5.075-3.029-6.834,4.449-9.99,4.828-10.835,7.92-12.559,18.1-11.064,5.978.874,9.1,3.73,8.875,9.9-.046,1.351-.253,2.765.575,4.006,5.708,5.817,5.9,7.231-.776,11.174-4.087,2.414-2.265,6.662-4.506,9.386-1.782-1.046-2.793-2.891-4.345-4.161-.443-.253-.523-1.058-1.282-.868.678.132,1.035.7,1.523,1.127.782,4.863-2.9,4.828-5.914,5.23-2.489.339-4.8-1.213-7.392-1.219,5.213,5.547,6.633,5.8,13.295,2.345,1.207-.621,2.328-1.529,3.822-.9.822,2.874-3.138,6.552,1.477,8.788" transform="translate(64.731 110.87)" fill="#ef7455"/>
      <path id="Path_3373" data-name="Path 3373" d="M81.315,70.66c-4.052,7.053-13.461,9.674-22.336,6.248-3.587-1.379-7.179-2.719-9.38-6.185,4.6-1.707,6.932-5.305,8.214-9.788.4-4.575.207-8.719-3.075-12.72C52.41,45.375,53,40.777,56.824,39.553c5.029-1.6,8.576-4.937,12.662-7.737,8.61-5.9,14.674-3.523,18.588,7.041-.65,8.294-1.971,16.226-10.26,20.79-3.006,1.655-2.449,4.621-2.155,7.288.368,3.368,3.253,3.259,5.656,3.725" transform="translate(235.486 136.052)" fill="#ec7c77"/>
      <path id="Path_3374" data-name="Path 3374" d="M93.9,49.832c-10.99-11.455-11.024-11.5-23.365-.287-1.328,1.207-2.443,1.816-4.161,1.512-2.276-.4-4.2.408-5.052,2.518-.9,2.224-.707,4.794,1.362,6.2,5.552,3.771,3.679,7.857.954,12.134-3.167-.218-6.541.161-9.455-.816-3.725-1.247-8.673-2.8-3.748-8.444,1.7-1.954.4-4.276-.063-6.5-3.489-16.91,8.817-30.894,26.089-29.549,3.6.282,7.162-1.023,10.8.466C96.115,30.686,98.989,40.21,93.9,49.832" transform="translate(229.653 125.072)" fill="#282727"/>
      <path id="Path_3375" data-name="Path 3375" d="M72.921,88.2c.374-6.133-.04-12.03-4.926-16.605-3.3-3.121.27-8.334-3.443-11.329-.92-9.013,2.8-16.835,6.518-24.595,2.144-4.483,16.485-9.691,23.284-8.15,6.351,1.437,8.742,6.432,9.242,12.593.218,2.707.862,5.38,1.311,8.07-4.035,4.334-5.811,4.328-8.466-.247-1.121-1.926-1.483-4.575-4.506-4.322-3.546.3-2.489,3.822-3.8,5.61-6.213,8.432-4.937,18.1-5.121,27.561-.04,2.075-.328,4.1-1.857,5.7-1.558,3.61-4.012,5.926-8.231,5.713" transform="translate(305.807 129.366)" fill="#705225"/>
      <path id="Path_3376" data-name="Path 3376" d="M44.651,69.71c-4.615-4.432-7.386-10.266-11.9-14.916-4.087-4.207-1.075-10.685.5-14.916C36.374,31.5,43.932,29.234,53.077,27.671c7.518-1.288,11.1,2.931,16.186,5.024,4.535,1.874,5.616,12.754,2.2,16.146A6.307,6.307,0,0,1,66.3,49.9c-3.633-.908-5.937,1.27-8.984,2.632-6.254,2.793-9.645,5.11-6.725,12.645.851,2.2-2.1,5.345-5.943,4.535" transform="translate(145.756 130.236)" fill="#282727"/>
      <path id="Path_3377" data-name="Path 3377" d="M89.325,30.467c2.569-2.793,6.087-1.5,9.036-1.627,4.006-.167,2.431,3.633,2.443,5.725.109,24.21.063,48.414.063,72.623,0,1.144.075,2.282.109,3.426a34.273,34.273,0,0,1-11.444,2.167q-.1-41.16-.207-82.314" transform="translate(424.096 136.022)" fill="#2c2c2c"/>
      <path id="Path_3378" data-name="Path 3378" d="M102.048,68.707c-5.018-.966-8.99-.08-12.743,4.173-5.989,6.777-7.765,6.357-13.007-.724-5.966-8.07-6.271-8.421,1.615-15.186,4.506-3.862,2.483-10.708,7.61-13.835l2.61.259c2.77-1.167,5.426-3.7,8.472-.408,1.949,2.1,2.954.494,4.121-1.109,1.259-1.724,2.293-4.041,5.173-3.431,6.713,11.11-.828,20.4-3.851,30.262" transform="translate(341.365 182.056)" fill="#ef8982"/>
      <path id="Path_3379" data-name="Path 3379" d="M116.908,43.593c-1.265,1.19-3.529,1.983-2.92,4.138,2.466,8.714,3.035,18.014,7.949,25.974-6.92-.506-13.042,3.684-20.14,3.035-4.661-.425-8.231-1.178-10.783-5.524-1.782-3.035-3.581-6.277-7.047-8.053-1.535-.787-1.857-2.546-1.282-4.23.546-1.592,1.995-1.742,3.357-1.77a41.9,41.9,0,0,0,15.571-3.736c.466-1.219-.247-1.345-.885-1.471-2.477-.483-6.478,1.063-6.7-2.782-.224-3.96,3.822-3.817,6.673-4.133,5.38-.6,10.8-.977,16.2-1.448" transform="translate(391.306 206.969)" fill="#f18982"/>
      <path id="Path_3380" data-name="Path 3380" d="M129.022,84.788c.787,3.552-1.719,4.179-4.242,4.776C110.836,92.857,96.874,96.07,82.965,99.5c-3.771.925-5.047-.333-4.926-3.954a31.93,31.93,0,0,0-1.339-10.8c-1.023-1.42-3.253.172-4.115-1.655,9.731-1.3,19.439-2.96,29.216-3.759,4.179-.339,5.541-1.88,5.478-5.6.851,4.483,4.115,4.6,7.656,4.236,6.11-.632,11.271.69,14.088,6.828" transform="translate(344.614 350.02)" fill="#4b4b4b"/>
      <path id="Path_3381" data-name="Path 3381" d="M51.426,91.506c1.6,9.288.322,10.61-8.421,7.869-7.127-2.236-14.1-4.972-21.135-7.484-5.351-1.73-10.651-3.667-16.077-5.121C.92,85.453-.741,83.436,2.811,79.021c1.379-1.719,2.437-3.7,3.644-5.552,7.363,1.811,14.778,3.437,22.066,5.518,2.834.81,5.547,1.747,8.518,1.523,5.92,2.2,11.7,4.581,14.387,11" transform="translate(4.31 348.814)" fill="#705225"/>
      <path id="Path_3382" data-name="Path 3382" d="M67.369,71.054c.006-5.679.035-11.352.012-17.031C67.358,49.1,66.507,44,71.554,40.573c1.7-1.155,1.242-3.311,1.265-5.081.046-3.133.08-5.914,4.541-5.834,3.753.069,6.4.155,6.639,5.213.31,6.386,4.2,3.173,7.121,1.874,1.489,2.167.759,4.644,1,6.978,1.052,5.161-2.092,8.564-5.322,11.622-3.926,3.725-4.5,7.041-.1,10.628-5.271,6.139-12.34,5.46-19.33,5.081" transform="translate(319.589 140.802)" fill="#ee8981"/>
      <path id="Path_3383" data-name="Path 3383" d="M36.849,53.064c4.9-2.431,7.4-5.334,2.477-10.254a3.947,3.947,0,0,1-.529-5.07c1.161-1.8,2.954-1.977,4.84-1.632,1.247.224,2.983,1.8,3.656.247,3.748-8.593,10.513-4.466,16.375-4.167-2.477,5.88.552,12.818-3.61,18.427-.787,1.063-1.1,2.9-2.466,3.041-8.369.833-7.018,7.076-7.179,12.513-5.868-3.1-10.806-8.225-18.071-8.254,1.885-1.259,4.794-1.575,4.506-4.851" transform="translate(153.558 146.882)" fill="#eb8981"/>
      <path id="Path_3384" data-name="Path 3384" d="M75.577,54.354c-6.38-1.253-7.765-4.667-3.368-9.26C75.922,41.22,79.163,37.174,81,32.1c2.638,4.167,5.817,8.1,7.754,12.565a10.813,10.813,0,0,1-2.288,12.082,18.89,18.89,0,0,1-10.886-2.4" transform="translate(330.712 152.421)" fill="#705225"/>
      <path id="Path_3385" data-name="Path 3385" d="M74.9,33.231c2.954.172,4.489,1.466,4.006,4.673-.333,2.2-.385,4.437-.563,6.656-5.581.322-10.266,1.219-9.6,8.811.213,2.449-2.1,5.96-4.776,5.65-3.265-.385-.621-4.236-1.742-6.265.517-3.989,1.523-7.989,1.448-11.973-.1-5.754,1.316-9.036,7.88-7.438a12.193,12.193,0,0,0,3.345-.115" transform="translate(295.455 156.404)" fill="#454140"/>
      <path id="Path_3386" data-name="Path 3386" d="M92.49,45.634a14.921,14.921,0,0,0-5.932,8.932c-1.857.379-2.54-.782-3.1-1.581-2.144-3.041-3.857-5.868-7.156-.776-.977,1.512-.92-1.127-1.575-1.627.782-2.391,1.994-4.736,2.242-7.179.5-4.851,2.885-6.351,7.645-6.484,9.323-.259,9.311-.546,7.88,8.714" transform="translate(354.774 174.873)" fill="#434040"/>
      <path id="Path_3387" data-name="Path 3387" d="M42.871,42.3c-.293-.339-.747-.638-.845-1.029C39.589,31.52,35.548,28.8,25.846,29.756c-6.162.609-6.484,7.07-10.524,9.7C16.293,25.8,22.277,20.5,33.933,22.979c7.7,1.632,10.317,7.3,8.938,19.318" transform="translate(72.746 106.299)" fill="#994b48"/>
      <path id="Path_3388" data-name="Path 3388" d="M31.974,28.74c2.977-.247,4.449,1.086,4.3,4.1L35.98,34.4c-8.248,6.564-14.036,6.489-19.06-.086-1.069-1.4-1.931-2.851-.759-4.207,1.368-1.581,2.161.868,3.316.971,4.368.379,9.616,5.167,12.507-2.351Z" transform="translate(74.062 136.312)" fill="#d36446"/>
      <path id="Path_3389" data-name="Path 3389" d="M114.757,32.677A294.134,294.134,0,0,1,77.143,21.964c.218-.782.437-1.569.655-2.357q18.769,5.251,37.527,10.507c-.19.856-.379,1.707-.569,2.564" transform="translate(366.259 93.088)" fill="#4b4b4b"/>
      <path id="Path_3390" data-name="Path 3390" d="M77.9,28a86.932,86.932,0,0,1,32.044-3.259A91.473,91.473,0,0,1,77.9,28" transform="translate(369.872 116.172)" fill="#4f4f4f"/>
      <path id="Path_3391" data-name="Path 3391" d="M104.349,34.056A81.077,81.077,0,0,1,80.91,15.634c9.231,4.334,16.41,11.335,23.439,18.422" transform="translate(384.144 74.225)" fill="#4d4c4c"/>
      <path id="Path_3392" data-name="Path 3392" d="M103.077,27.646c-7.035,5.075-15.008,8.012-23.428,9.886,6.972-5.219,15.03-7.909,23.428-9.886" transform="translate(378.157 131.256)" fill="#4b4b4b"/>
      <path id="Path_3393" data-name="Path 3393" d="M47.672,45.247c-1.408,2.954-2.828,5.9-4.213,8.863-.477,1.029-1.086,2.265-2.253,1.31-.46-.374.115-2.017.218-3.075,2.414-5.633,4.828-11.271,7.869-18.364,1.857,5.495-1.086,8.127-1.621,11.266" transform="translate(194.799 161.333)" fill="#615650"/>
      <path id="Path_3394" data-name="Path 3394" d="M24.954,65.943c-2.65-5.788-.891-11.886-1.253-17.835,2.581,5.794.649,11.9,1.253,17.835" transform="translate(111.384 228.405)" fill="#919fb7"/>
      <path id="Path_3395" data-name="Path 3395" d="M92.646,33.787q-.06-9.561-.121-19.129c2.495-.161,4.995-.466,7.5-.466,67.646-.029,135.292.04,202.943-.161,5.541-.011,7.294,1.127,7.282,7.03q-.3,154-.017,308c.006,5.851-1.075,7.645-7.374,7.622q-102.158-.405-204.317-.04c-5.57.012-7.271-1.2-7.231-7.058.276-38.5.115-77,.092-115.5.448-.052.891-.1,1.333-.161,4.041-1.081,8.162-.454,12.237-.489,6.461-.063,6.863.793,5.777,7.2-1.891,11.11-2.138,22.175,1.552,33.084,1.017,3.012,2.518,5.253,5.8,4.207,11.559-3.679,23.118-.92,34.688-.443,32.423-.328,64.841-.466,97.247.184a72.248,72.248,0,0,1,28.578-.437c5.983,1.15,8.4-1.178,8.535-7.553.287-13.95.069-27.911.1-41.867.092-37.292-.178-74.583.126-111.869-.241-4.995-.184-10-.08-14.99.1-4.65-1.966-6.512-6.541-6.495-11.588.034-23.181.086-34.774-.034-3.345-.035-6.92.437-9.53-2.506-1.673-4.311-1.989-8.926-2.38-13.45-.971-11.208-6.978-18.318-17.433-21.4a55.647,55.647,0,0,1-18.094-9.5c-3.552-2.7-7.541-5.978-11.662-.259-.931,1.288-2.977.994-4.581.764-2.518-.356-4.524.207-5.742,2.661A5.064,5.064,0,0,1,173.54,33.3c-6.558,2.414-7.466,5.2-4.685,11.576,2.081,4.776,7.461,6.869,9.093,11.9-.247,5.9.575,12.088-4.621,16.605a27.977,27.977,0,0,1-18.767-1.012c-13.41-10.064-28.446-17.692-41.6-28.193-5.926-4.736-11.944-10.082-20.313-10.392" transform="translate(433.501 66.619)" fill="#eeeded"/>
      <path id="Path_3396" data-name="Path 3396" d="M155.724,94.148c-6.627,2.713-13.553.966-20.33,1.242-7.535.31-15.094.2-22.635-.029-7.127-.207-8.237-5.075-8.093-10.95.138-5.558-.667-12.059,7.248-12.266,14.14-.356,28.314-.943,42.453.351.167,1.563-.96,2.086-2.1,2.592-11.156,1.46-22.376.23-33.556.718-3.954.172-7.943.333-8.869,5.541-1.115,6.294,1.27,9.277,8.081,9.559,11.863.477,23.767-.678,35.631.667,1.161.489,2.276,1.023,2.173,2.575" transform="translate(496.88 340.412)" fill="#d0d0d0"/>
      <path id="Path_3397" data-name="Path 3397" d="M112.989,73.366c.6-.512,1.207-1.017,1.811-1.529,7.374,4.489,8.081,15.714,1.357,21.658l-1.747-1.42c1.713-6.4,2.454-12.731-1.42-18.709" transform="translate(536.448 341.065)" fill="#bbb"/>
      <path id="Path_3398" data-name="Path 3398" d="M36.3,53.313c-4.937-16.45,5.1-27.727,13.628-39.551a35.837,35.837,0,0,0,4.328-6.938c1.736-4.173,5.012-4.328,8.512-3.736,3.725.632,5.07,3.225,5.282,6.92.362,6.2-3.023,10.823-6.156,15.485-2.615,3.9-1.8,5.1,2.7,5.018,7.11-.138,14.226.138,21.324-.092,6.282-.2,7.076,3.311,6.7,8.392-.839,11.473-4.92,22.221-7.133,33.383-.644,3.225-2.466,5.2-6.185,5.162-11.921-.121-23.848.017-35.774-.132-5.121-.063-7.938-2.247-7.334-8.11.529-5.213.109-10.53.109-15.8" transform="translate(166.123 13.463)" fill="#fff"/>
      <path id="Path_3399" data-name="Path 3399" d="M30.484,31.923c0-5.937.213-11.881-.075-17.807-.2-4.041,1.529-6.121,5.294-6.363,4.776-.3,9.576-.362,14.364-.236,3.822.1,5.018,3.156,5.075,6.19.241,12.329.184,24.652.236,36.981.017,3.075-1.471,4.656-4.581,4.656-.454,0-.914.023-1.368.023-22.474-.19-18.45,2.874-18.9-17.968-.04-1.822-.006-3.65-.006-5.478Z" transform="translate(144.306 35.399)" fill="#fff"/>
      <path id="Path_3400" data-name="Path 3400" d="M58.657,45.014C67.52,54.7,71.584,55.906,81.585,51.831c2.265,6.323.356,12.892,1.155,19.307.109,18.956-.161,37.93.408,56.874.885,29.561-6.461,57.9-12.116,86.493-.581,2.937-1.569,5.489,2.92,5.426,1.1,3.414-.684,4.73-3.73,5.133-3.546-.874-6.9-2.012-8.26-5.926-.138-22.4.4-44.838-1.391-67.192-2.391-29.94-.69-59.909-1.339-89.861-.075-3.65.132-7.317-1.236-10.812.224-2.092.443-4.173.661-6.259" transform="translate(275.353 213.715)" fill="#fdfdfd"/>
      <path id="Path_3401" data-name="Path 3401" d="M101.865,170.959c1.282.776,3.6-1.046,4.115,1.644q-18.606.086-37.217.167c-1.293.621-2.391.845-2.345-1.184,4.558.339,6.041-1.713,6.438-6.305,2.851-33.033,6.213-66.019,7.323-99.178A63.816,63.816,0,0,1,81.65,55.216c6.57,24.888,13.3,49.678,14.743,75.526.7,12.323,1.816,24.629,2.713,36.941.138,1.788-.253,3.937,2.759,3.276" transform="translate(315.333 262.152)" fill="#fdfcfc"/>
      <path id="Path_3402" data-name="Path 3402" d="M96.347,75.532l2.345,1.19c3.437,1.753,7.087,3.2,10.237,5.363a7.5,7.5,0,0,1,3.213,8.472c-1.115,3.587-4.271,1.42-6.541,1.448-13.254.155-26.509.224-39.763.322-1.351-4.547-4.7-8.2-5.725-12.887,2.644-.023,2.954-2.259,3.788-3.995l32.446.086" transform="translate(285.404 358.2)" fill="rgba(0,0,0,0.67)"/>
      <path id="Path_3403" data-name="Path 3403" d="M86.011,157.061c-11.846.333-23.669,1.512-35.539.615-4.046-.718-4.564-3.7-4.524-7.041C59.755,120.413,75.86,91.151,83.677,58.417c2.569,33.027,2.88,65.824,2.334,98.644" transform="translate(218.145 277.35)" fill="#fdfcfa"/>
      <path id="Path_3404" data-name="Path 3404" d="M94.027,80.872c4.96,2.943,6.777,7.282,5.725,12.887-13.858.161-27.716.276-41.568.506-3.788.063-5.4-1.569-5.2-5.328.2-3.627.178-7.265.259-10.9C54,76.262,55,75.032,57.27,75.153c9.513.512,19.071-.414,28.555.937q4.1,2.388,8.2,4.782" transform="translate(251.49 356.769)" fill="#705225"/>
      <path id="Path_3405" data-name="Path 3405" d="M65.255,78.676q2.259,3.518,4.523,7.047c.213.615.253,1.4.661,1.834,3.115,3.3,4.455,7.369,1.655,10.915-2.518,3.184-6.11.489-9.156-.558-5.127-4.547-10.806-7.926-17.789-8.777a4.2,4.2,0,0,1-3.138-2.374c-.592-4.713.943-8.984,2.788-13.191,7.167.316,13.5,3.96,20.456,5.1" transform="translate(198.845 349.303)" fill="#705225"/>
      <path id="Path_3406" data-name="Path 3406" d="M21.581,187.235c-3.845-4.9-10.461-6.19-14.387-11,12.662-18.508,25.187-37.165,34.866-57.409,9.7-20.29,12.622-42.792,19.14-65.525,13.26,27.929,28.187,53.8,30.147,84.366-.052,6.07-5.449,8.668-8.4,12.846-1.569,2.23-3.42,4.265-5.144,6.386a3.125,3.125,0,0,1-.466,2.575c-5,8.053-4.771,7.771,2.811,14.128,3.954,3.316,10.317,4.311,11.329,10.754q-34.944,1.44-69.9,2.874" transform="translate(34.156 253.084)" fill="#fff"/>
      <path id="Path_3407" data-name="Path 3407" d="M28.884,118.485c-.523-4.489,1.592-7.576,4.742-10.651,13.99-13.645,26.986-28.089,34.3-46.666,1.885-.989,2.868.109,3.88,1.517C79.763,73.814,85.563,85.6,85.431,99.811c-.144,15.973-1.27,31.854-2.908,47.724-15.065.379-30.182-.8-45.183,1.5-3.236,2.155-5.713,1.1-7.76-1.816-.546-9.564-4.564-19.054-.7-28.733" transform="translate(129.238 288.612)" fill="#fefefe"/>
      <path id="Path_3408" data-name="Path 3408" d="M71.792,72.694q.862,14.467,1.719,28.94c-.5,4.029-3.817,3.087-6.167,3.161-3.535.109-5.7.672-6.57,4.914-1.207,5.909-4.081,6.805-9.392,3.679-3.679-2.161-7.547-4.248-9.311-8.553a3.011,3.011,0,0,0-2.765-1.793c-5.041-5.311-11.317-9.07-17.272-13.157-4.058-2.788-5.529-4.9-1.339-8.645a57.382,57.382,0,0,0,4.932-5.65c5.805,3.857,11.783,7.484,17.353,11.662,3.144,2.357,5.345,2.644,8.15-.3,4.679-4.914,9.806-9.409,14.375-14.421,2.535-2.776,4.265-2.862,6.288.167" transform="translate(86.329 334.403)" fill="#272728"/>
      <path id="Path_3409" data-name="Path 3409" d="M65.6,75.867c3.311.736,6.616,1.5,9.938,2.2,5.208,1.1,9.323,3.518,10.984,8.955-.276,2.8-2.265,2.926-4.449,2.92-13.4-.023-26.813-.132-40.217.057-4.023.057-5.207-1.546-4.891-5.236.247-2.931.172-5.892.247-8.84Q51.4,75.9,65.6,75.867" transform="translate(175.258 360.199)" fill="#272728"/>
      <path id="Path_3410" data-name="Path 3410" d="M22.724,79.064c3.546,2.449,7.064,4.943,10.651,7.328,4.466,2.966,7.369,1.822,6.547-3.276-1.046-6.495,2.512-5.7,6.455-5.851,2.609-.1,5.535.908,7.788-1.4,2.035,1.414,4.386,1.506,6.736,1.6,2.472,2.793,6.409,2.046,9.329,3.9,2.77,1.765,4.6,4.075,4.092,7.282-.615,3.828-4.012,2.15-6.15,2.178-12.346.167-24.71-.293-37.033.224-6.748.282-10.018-1.345-8.524-8.576a19.82,19.82,0,0,0,.109-3.414" transform="translate(105.676 360.175)" fill="#705225"/>
      <path id="Path_3411" data-name="Path 3411" d="M104.186,151.132c.046-6.639.247-13.283.075-19.916-.1-4.041,1.747-6.323,5.19-7.984,12.065-5.811,24.215-11.559,35.378-18.939,9.219-6.1,18.738-12.128,25.175-21.531,5.506-8.041,3.822-20.646-3.546-26.8-8.392-7.018-17.473-9.3-27.63-3.661-8.708,4.834-17.72,9.185-24.876,16.364-3.035,1.483-4.368-.046-4.253-2.828.081-2.075-.793-3.96-.632-5.995,4.84-8.783,8.783-18.152,16.49-25.049,2.023-1.811,3.765-4.1,6.892-4.046,4.1.839,8.242.345,12.358.3,17.14-.155,32,4.305,42.373,19.3,3.627,5.248,11.013,7.777,11.306,15.525,2.9,8.846,2.92,18.088,3.581,27.2,1.494,20.594.925,41.223.3,61.829-.109,3.575-.494,7.363-2.793,10.5-2.845,2.012-6.133,1.489-9.277,1.494-22.123.057-44.246.006-66.37.052-2.931.006-5.966-.46-8.662,1.259-4.207,1.023-8.88,6.644-12.243-1.19-.638-5.368-2.052-10.794,1.167-15.881" transform="translate(485.009 145.964)" fill="rgba(209,193,150,0.76)"/>
      <path id="Path_3412" data-name="Path 3412" d="M154.515,71.558q.319,8.475.644,16.956c1.035,4.782-1.242,8.375-4.23,11.708-7.512-.322-15.025-.718-22.543-.925-3.38-.092-6.575-.012-9.921,1.742-4.96,2.609-7.691-.276-9.513-5.541-3.242-9.357-2.109-18.807-2.4-28.256a19.053,19.053,0,0,1,.023-3.437c1.316-8.633,1.333-8.616-7.472-8.616-2.518,0-5.041-.115-7.553-.178,2.454-1.77,5.311-1,7.938-1.029,17.956-.2,35.861-.7,53.351-6.478,1.569,8.271-.718,16.341,1.673,24.054" transform="translate(434.679 225.537)" fill="#f3d3a4"/>
      <path id="Path_3413" data-name="Path 3413" d="M142.677,48.391c.443,1.88,3.19,2.845,1.4,5.742-1.471,2.374,1.276,2.512,2.92,2.845-9.518,6.662-18.646,13.852-29.245,18.973-4.995,2.414-10.518,2.7-15.387,5.242-2.178,1.138-3.362-.2-3.506-2.529-.109-1.77.4-3.707-1.178-5.15a5.566,5.566,0,0,1-2.138-4.753c-.109-9.426-1.012-18.876.592-28.256,1.719-3.523,4.782-2.782,7.714-2.362,4.075.586,8.139,1.058,12.122-.437a12.162,12.162,0,0,1,1.782-1.029c3.4-1.069,6.363-3.483,10.151-3.472,3.633,2.443,5.1,6.443,6.179,10.225,1.4,4.932,4.138,6.058,8.593,4.96" transform="translate(451.961 157.649)" fill="rgba(209,193,150,0.76)"/>
      <path id="Path_3414" data-name="Path 3414" d="M98.545,110.83c-5.185.655-7.133-1.184-7.047-6.805.328-22.227.259-44.459.052-66.686-.046-5.351,1.155-8.306,7.231-7.851,2.638.2,5.368-.787,8.058-1.236,2.334,2.719,1.8,6.035,1.8,9.185.012,15.548.483,31.1.121,46.643-.138,5.667,2.236,10.978.839,16.95-1.345,5.765-3.914,8.875-9.564,9.7-.5.034-.994.063-1.489.1" transform="translate(434.402 134.128)" fill="#ecebeb"/>
      <path id="Path_3415" data-name="Path 3415" d="M92.981,110.732c6.685-3.523,9.145-10.133,6.984-18.3a19,19,0,0,1-.207-4.759q0-29.719.029-59.426c.977.052,1.954.1,2.931.149,2.2,2.724,1.925,6.018,1.644,9.076-.822,8.869,1.127,17.238,3.909,25.514q-.043,17.028-.08,34.05c-.592,11.317-1.661,12.283-15.209,13.691" transform="translate(441.454 134.128)" fill="#f0d5ad"/>
      <path id="Path_3416" data-name="Path 3416" d="M64.675,53.035C56.455,58.811,52.4,68.215,45.42,75.077A48.583,48.583,0,0,1,34.792,64.5c-5.989-8.122-5.322-15.8,1.931-21.451,5.506-4.282,14.709-5.834,21.175,2.391,2.1,2.661,4.512,5.07,6.777,7.6" transform="translate(145.965 187.75)" fill="rgba(209,193,150,0.76)"/>
      <path id="Path_3417" data-name="Path 3417" d="M85.618,35.261c-4.7.431-9.214-1.213-14.117-.3-5.432,1.012-5.11-3.96-5.081-7.524.046-3.914-.879-9.6,5.472-8.57,5.731.937,7.806-1.684,9.668-5.937.908-2.069,1.92-4.748,4.84-3.523,3.018,1.265,1.8,3.736.558,5.7-1.368,2.155-1.167,3.489,1.592,3.506,4.374.034,8.938-.776,7.961,6.351-1.069,7.9-3.328,10.352-10.892,10.294" transform="translate(315.239 43.2)" fill="#fff"/>
      <path id="Path_3418" data-name="Path 3418" d="M123.479,79.685c-6.271,5.248-6.173,5.207-9.3-2.374-1.707-4.133-3.817-8.1-5.742-12.139-2.874-3.667-1.385-8.415-3.138-12.427-1.448-3.322-2.138-6.938-4.351-9.972-1.506-2.063-2.621-4.38-.661-6.874,3.357-2.765,7.489-.948,11.237-1.753A17.216,17.216,0,0,0,122.2,27.69c1.65-1.345,3.73-1.477,5.029-.126,5.65,5.874,12.829,7.886,20.566,8.748,1.759,3.656,1.242,7.466.81,11.283a4.767,4.767,0,0,1-2.822,3.512c-7.185,5.4-12.95,11.978-16.439,20.324-1.357,3.236-3.926,5.495-5.863,8.254" transform="translate(471.158 126.355)" fill="#f2d2a4"/>
      <path id="Path_3419" data-name="Path 3419" d="M122.194,28.228c-.1,5.995,5.639,9.317,6.644,15.26.793,4.69,1.77,9.242,1.506,14.013-3.052,1.563-6.006,3.362-9.478,3.891-2.627-2.058-5.213-4.328-9.145-1.857,2.9,3.087,6.61-.741,9.127,1.862-2.69,4.023-6.811,2.495-10.426,2.518-3.317.017-6.633-.523-9.949-.816-7.874-7.765-5.426-17.709-5.685-27.066-.069-2.506.081-5.018.132-7.524q13.64-.138,27.273-.282" transform="translate(449.251 134.019)" fill="#f28880"/>
      <path id="Path_3420" data-name="Path 3420" d="M132.292,47.7c-6.846,2.834-12.323.345-17.215-4.42-2.1-2.052-3.977-4.535-7.472-3.972.977-5.983-.535-11.087-5.294-15.053q9.493-.043,18.991-.092c.885,8.691,4.661,15.743,11.823,20.893a2.408,2.408,0,0,1-.833,2.644" transform="translate(485.751 114.733)" fill="#bdaf95"/>
      <path id="Path_3421" data-name="Path 3421" d="M19.985,17.6c4.569.293,10.794-2.541,11.858,5.213.661,4.8-6.478,11.381-11.616,11.289C15.761,34.02,9.07,27.829,9.214,23.714c.27-7.673,5.633-6.731,10.771-6.11" transform="translate(43.735 81.659)" fill="#fff"/>
      <path id="Path_3422" data-name="Path 3422" d="M48.836,47.831c-1.661,3.891-4.817,6.294-8.346,8.317a4.482,4.482,0,0,1-5.529.144c-3.328-2.661-4.932-1.138-5.719,2.357-3.288,2.27-3.679-1.581-5.426-2.564-1.23-4.006-6.5-5.828-5.863-10.835.966-3.391,4.621-4.776,5.932-7.915.109-.477.425-1.1.7-1.012,5.144,1.54,10.358.989,15.565.644,2.023,4.317,7.254,6.075,8.685,10.863" transform="translate(84.984 172.417)" fill="#ed7453"/>
      <path id="Path_3423" data-name="Path 3423" d="M18.928,39.8c2.472-.54,3.023,2.972,5.432,2.564a3.526,3.526,0,0,1-2.615,2.972c-3.322-.632-2.673-3.282-2.816-5.535" transform="translate(89.866 188.7)" fill="#b38380"/>
      <path id="Path_3424" data-name="Path 3424" d="M20.87,39.91c1.845-.046,3.684-.1,5.529-.144L23.33,45.232a7.149,7.149,0,0,1-2.46-5.322" transform="translate(99.069 188.799)" fill="#c38482"/>
      <path id="Path_3425" data-name="Path 3425" d="M67.6,21.714a26.3,26.3,0,0,0,5.345-.8c2.983-1.081,5.61-.466,7.432,1.77,2.115,2.6,1.288,5.593-.241,8.329-4.8,8.593-12.076,9.38-18.037,1.949-2.1-2.615-3.466-5.547-2.23-8.857,1.4-3.753,4.868-2.489,7.731-2.391" transform="translate(281.997 96.833)" fill="#fff"/>
      <path id="Path_3426" data-name="Path 3426" d="M35.207,48.106c-5.317,4.9-10.8,2.3-16.266.362.431-2.213,1.506-4.518,1.2-6.621-1.219-8.179,3.765-8.185,9.432-7.714,4.052.333,6.323,2.075,5.909,6.489-.236,2.483-.19,4.989-.27,7.484" transform="translate(89.928 161.273)" fill="#403f42"/>
      <path id="Path_3427" data-name="Path 3427" d="M22.777,32.03c-1.851-.287-4.391,1.092-5.167-1.851-.356-1.339.672-2.086,1.971-2.155,2.891-.149,3.426,1.644,3.184,4.018l.011-.011" transform="translate(83.27 133.01)" fill="#edb286"/>
      <path id="Path_3428" data-name="Path 3428" d="M121.754,184.707c2.569-33.636,3.4-67.22-2.874-100.609-1.092-3.6-.109-5.788,3.6-7.507,11.45-5.322,14.737-12.766,11.725-25a102.723,102.723,0,0,0-3.885-10.973c-.868-2.345-2-4.684-.69-7.242,1.012-1.3,2.73-1.684,3.839-2.765,6.15-5.989,12.214-4.679,18.3.006,2.707,2.1,5.972,3.3,8.6,5.5q.06,78.069.1,156.127c0,5.943-3.564,9.926-9.5,8.2-9.9-2.874-19.519-1.719-29.314-.839-2.546-3.633-1.385-7.719-1.414-11.651a6.68,6.68,0,0,1,1.517-3.247" transform="translate(562.423 126.259)" fill="#f3d3a4"/>
      <path id="Path_3429" data-name="Path 3429" d="M115.754,50.256c-3.862-3.23-7.811-6.4-10.07-11.082-3.391-7.018-1.276-11.317,6.265-12.777.213-.04.632.092.65.04,2.127-6.713,6.719-7.07,12.369-4.868.121.046.73-.586.747-.92.454-9.392,6.495-4.138,8.863-2.506A135.98,135.98,0,0,0,161.731,32.19c12.7,5.07,13,17.077,14.295,28.268a29.788,29.788,0,0,1,.023,3.437c.04,7.145-4.587,11.289-9.719,15.117-1.994,1.207-3.575,3-5.673,4.069-5.892,1.673-11.019,6.081-17.7,4.949a9.191,9.191,0,0,1-3.857-7.472c.109-3.374,2.73-5.047,4.822-7.093,1.678-1.644,3.069-3.523,2.351-6.029-.7-2.437-2.914-2.8-4.972-2.713-4.15.19-5.644-2.523-6.426-5.759-1.3-5.42-4.69-7.259-10.018-6.961-3.087.172-6.443.741-9.1-1.747" transform="translate(494.317 72.171)" fill="#272727"/>
      <path id="Path_3430" data-name="Path 3430" d="M200.309,56.064q.017,5.923.04,11.84l-98.465-.1q2.112-5.854,4.23-11.708c3.167,4.11,6.052-1.977,9.15-.247,2.121-1.885,4.736-1.448,7.214-1.448q35.383-.052,70.767.012c2.437,0,5.121-.621,7.064,1.655" transform="translate(483.724 257.953)" fill="#4a536a"/>
      <path id="Path_3431" data-name="Path 3431" d="M114.68,38.156c4.937-3.9,9.72-7.915,11.208-14.484.77,3.592,3.638,2.8,6.029,2.8,13.266.034,26.538.207,39.8-.092,4.96-.109,7.15,1.127,6.754,6.461-.425,5.685-.132,11.427-.155,17.14-5.317,1.23-8.254-3.219-11.766-5.529-5.012-3.293-8.9-3.575-12.961.868a7.332,7.332,0,0,1-5.5,2.144c-1.115.621-2.592.655-3.127-.264-4.6-7.972-12.271-6.254-19.387-6.323-1.592-.017-3.184.069-4.776-.057-2.322-.236-4.863.006-6.116-2.667" transform="translate(544.477 112.388)" fill="#bdaf95"/>
      <path id="Path_3432" data-name="Path 3432" d="M110.227,21.639a48.715,48.715,0,0,0,6.15-.086c8.047-1.086,14.41.155,15.3,10.013.207,2.242,1.127,3.615,4.029,2.73,3.046-.931,6.133-.2,7.415,3.11,1.414,3.644-.1,6.708-3.018,9.047-2.04,1.638-5.2,2.132-5.455,5.524-4.207,5.2-10.484,5.4-16.289,6.736-10.266-1.69-9.674-11.34-13.059-18.025-.218-.425,1.236-1.7,1.914-2.569a63.567,63.567,0,0,0,3.012-16.479" transform="translate(499.843 100.787)" fill="#ef8981"/>
      <path id="Path_3433" data-name="Path 3433" d="M95.235,65.432H268.916v1.54H95.235v-1.54" transform="translate(452.156 310.656)" fill="#bdaf95"/>
      <path id="Path_3434" data-name="Path 3434" d="M99.005,61.635H251.1c.006.477.011.954.011,1.431H98.988l.017-1.431" transform="translate(469.974 292.628)" fill="#bdaf95"/>
      <path id="Path_3435" data-name="Path 3435" d="M114.957,70.041a10.282,10.282,0,1,1-20.554.632,10.364,10.364,0,0,1,10.283-10.582,10.477,10.477,0,0,1,10.271,9.949" transform="translate(448.178 285.297)" fill="#806534"/>
      <path id="Path_3436" data-name="Path 3436" d="M150.437,72.1c5.9,4.322,6.512,12.473,1.42,18.709-13.053.063-26.106-.006-39.148.247-6.328.126-7.673-3.242-7.6-8.668s.1-10.254,7.558-10.2c12.593.1,25.181-.046,37.774-.086" transform="translate(499 342.328)" fill="#fff"/>
      <path id="Path_3437" data-name="Path 3437" d="M155.5,27.031c1.362-.1,2.736-.115,4.087-.3,9.34-1.259,18.065-.9,23.37,8.679,1.092,7,5.236,12.956,6.512,19.974,2.115,11.639-2.569,21.209-13.7,24.819-3.5,1.132-4.248,2.719-4.075,5.719-1.144-3.564-1.816-7.415-6.541-8.288-.868-.161-1.6-1.558-2.207-2.5-11.743-18.312-29.613-21.974-49.529-20.692-2.219.144-4.506.994-6.087-1.414.437-.885.868-1.77,1.3-2.65,5.087-6.817,11.743-11.622,19.387-15.18,6.236-.7,11.283-5.11,17.583-5.61,2.891-2.426,7-.138,9.892-2.558" transform="translate(509.604 124.438)" fill="rgba(209,193,150,0.76)"/>
      <path id="Path_3438" data-name="Path 3438" d="M189.256,57.314q-42.522-.112-85.044-.218c.747-4.271,4.167-2.77,6.564-2.776,26.2-.1,52.414-.057,78.624-.057-.052,1.017-.1,2.035-.144,3.052" transform="translate(494.777 256.704)" fill="rgba(209,193,150,0.76)"/>
      <path id="Path_3439" data-name="Path 3439" d="M127.115,33.452l-19.387,15.18q-.1-6.19-.2-12.381c.057-.977.109-1.96.161-2.937,2.943-4.707,8.932-2.219,12.611-5.334.943-.8,2.437-.948,3.679-1.4q1.569,3.44,3.138,6.874" transform="translate(510.516 126.185)" fill="#dc7b72"/>
      <path id="Path_3440" data-name="Path 3440" d="M109.208,38.426c-2.661.46-5.305,1.069-7.984,1.322-1.483.132-3.472.339-4.023-1.65-.626-2.265,1.2-3.2,2.851-4.006,4.817-2.334,7.754-.592,9.168,4.328l-.012.006" transform="translate(460.892 156.997)" fill="#f2cabd"/>
      <path id="Path_3441" data-name="Path 3441" d="M123.886,27.122c-2.322,4.61-6.535,1.931-9.892,2.558,1.15-1.356,2.081-2.96,3.949-3.489,1.977.316,3.96.621,5.943.931" transform="translate(541.22 124.348)" fill="#b35f5e"/>
      <path id="Path_3442" data-name="Path 3442" d="M116.759,64.021c2.058-5.2,3.61-10.4,10.093-8.915,3.213.741,2.334,4.736,1.5,6.495-2.541,5.363-7.254,1.926-11.593,2.42" transform="translate(554.347 260.405)" fill="#313f4f"/>
    </g>
  </g>
</svg>
