<svg id="Group_607" data-name="Group 607" xmlns="http://www.w3.org/2000/svg" xmlns:xlink="http://www.w3.org/1999/xlink" width="922.387" height="510.244" viewBox="0 0 922.387 510.244">
  <defs>
    <clipPath id="clip-path">
      <rect id="Rectangle_1709" data-name="Rectangle 1709" width="922.387" height="510.244" fill="none"/>
    </clipPath>
  </defs>
  <g id="Group_606" data-name="Group 606" clip-path="url(#clip-path)">
    <path id="Path_3443" data-name="Path 3443" d="M149.486,497.392c.279-3.3-1.577-4.923-4.294-6.5-22.153-12.834-40.3-30.59-56.04-50.2C68.673,415.185,52.122,387.218,41.4,355.739c-12.191-35.8-16.068-72.451-13.566-109.586,1.628-24.184,7.46-48,16.18-70.959a270.792,270.792,0,0,1,52.171-85.7c12.31-13.724,26.019-25.4,40.323-36.865C160.99,33,189.04,20.636,218.3,11.2,252.913.05,288.717-1.952,325,1.6a271.159,271.159,0,0,1,72.861,17.8A286.033,286.033,0,0,1,440.6,41.03c20.9,12.606,38.231,29.3,55.009,46.661,2.964,3.067,5.521,3.361,9.607,2.386,28.369-6.774,57.014-8.186,86.157-5.594C610,86.14,628.084,89.248,645.736,95.174c2.588.87,5.615.975,7.5,3.438-9.133,5.635-17.657,13.061-27.562,16.426-10.774,3.659-17.935,14.1-30.038,14.508-.9.031-2.714,2.366-2.467,3.011,3.4,8.954-3.988,13.587-7.348,19.946-1.224,2.318-.729,6.434.508,8.993,3.924,8.115,3.691,17.121,5.331,25.571a93.087,93.087,0,0,0,5.166,18.063c1.361,3.2,4.457,13.906,13.9,8.585.721,3.725,2.918,2.8,5.715,2.36,17.7-2.761,35.313-6.1,53.206-7.725,10.577-.96,21.028-3.273,31.542-4.93,4.712-.743,6.99-3.293,6.337-8.133-.97-7.2-1.4-14.538-3.11-21.562-1.888-7.753.862-12.258,7.535-15.745,12.4-6.48,12.293-6.626,9.221-19.648a21.164,21.164,0,0,1-.146-4.214c9.688,2.5,16.481,9.408,23.475,15.8,18.542,16.96,35.673,35.33,48.917,56.713,16.051,25.915,28.466,53.3,35.055,83.57,4.806,22.073,7.968,44.1,7.7,66.464-.252,21.269-3.609,42.316-8.753,63.086-6.837,27.6-18.454,52.99-33.612,76.9q-64.336-.023-128.67-.044c-.792-8.482,3.054-17.153-1.664-25.555-2.262-4.031-2.394,1.082-3.638.374l-3.382-.885c-4.632-3.686-3.812-8.047-1.808-12.754,2.374-5.581-4.8-17.035-10.828-17.1-13.281-.15-26.57-.231-39.844.116-3.761.1-6.879.874-6.694-4.386.148-4.152-.911-9.294,5.591-9.241,27.387.224,54.8-1.128,82.148.778,4.422.308,5.526-.5,5.6-4.5.134-6.777-.814-13.413-1.6-20.122-2.586-21.973-4.734-44-6.825-66.024-.326-3.445-1.258-5.346-4.909-5.183,3.846-8.016,1.891-11.882-7.389-13.282-4.349-.654-8.872-.141-13.316-.156l-3.132-3.412c.088-1.659-.219-3.462.331-4.947,3.293-8.895,1.266-15.165-7.3-21.793-2.015-4.673-6.541-6.436-10.412-8.959-7.713-3.122-14.643-2.726-20.061,4.457-13.491,4.33-21.56-5.222-30.725-11.967a1.28,1.28,0,0,0-1.038-.756l-.544-.486c-1.337-5.841,5.12-6.551,7.032-10.533,3.616-7.533,2.417-16.933,10.312-23.064,3.135-2.437,2.486-8.288-2.44-11.45-2.073-1.332-3.613-3.492-5.4-5.277-4.012-5.749-8.913-10.63-12-17.346-3.285-7.136-13.461-7.45-19.951-2.539-2.2,1.66-2.974,4.911-6.182,5.339-4.748-.668-3.375-4.332-3.385-7.156q-.092-23.959-.017-47.917c.041-11.313-3.62-20.126-15.458-23.659-2.541-2.685-5.844-1.565-8.808-1.572-35.811-.082-71.624.025-107.436-.093-16.567-.056-14.208,2.226-14.275-14.3-.022-5.639.868-11.372-6.848-12.7.785-8.623-5.132-8.538-11.056-8.536q-97.267.015-194.531.01c-1.409,0-2.823-.032-4.228.054-3.988.246-5.305,3.023-5.232,6.351.338,15.279.918,30.553,1.286,45.832a40.533,40.533,0,0,1-.85,10.868c-2.311,9.4-.717,11.131,9.357,11.4-.892,6.487,1.6,8.616,8.407,8.572,45.887-.3,91.776-.049,137.665-.279,6.152-.031,8.57,1.468,8.247,7.972-.457,9.245.027,18.537.109,27.81l-.027.036a3.185,3.185,0,0,0-3.433,1.478l-6.633,3.632c-3.489.319-7.348-1.529-10.332,1.755-12.371,8.714-12.353,17.726.054,26.765.119,8.781,2.923,16.3,10.208,21.725a15.608,15.608,0,0,1-9.678,2.374c-13.865-1.244-27.351-3.81-39.65-10.771a5.344,5.344,0,0,0-4.8-3.047c-3.609-9.432-11.236-10.006-19.23-7.849-8.966,2.418-8.378,10.125-8.092,17.3.056,1.409.141,2.816.214,4.223.461,7.408,6.509,7.261,11.532,8.5,1.307,5.232,5.564,2.627,8.612,3.234,1.6,6.716,7.673,6.471,12.54,7.807,9.722,2.666,17.364,10.463,27.865,11.109-5.387,10.225-3.973,22.1-7.965,32.657,0,.775,0,1.562,0,2.35q-2.572.308-5.137.61c-3.076-.608-5.859.184-7.316,2.92-2.826,5.314-7.4,10.108-5.661,17,.9,3.552-.476,7.137-4.106,6.641-11.245-1.533-10.655,5.416-10.278,12.784.245,4.768.16,9.554.221,14.331q-.184,5.177-.369,10.353c-4.231-.321-6.894.7-6.66,5.873.4,8.886.319,17.792.44,26.69l-.255.279c-4.456,1.546-7.962,6.218-13.464,4.333-6.385-2.185-12.679-1.071-19,.192l.034.019c-6.155-6.339-12.513-3.875-18.892-.428-4.4-.4-4.743,2.262-5.025,5.8-1.31,16.346-.454,32.7-.338,49.044.041,5.871-1.793,8.813-7.5,9.418q-2.093,0-4.186,0a134.321,134.321,0,0,0-33.253.01l-18.979-.369m69.5-192.142a5.137,5.137,0,0,0,6.041,4.466c3.638-.416,2.427-3.832,2.456-6.092.124-9.743.007-19.488.08-29.233.027-3.587.029-6.937-5.01-6.583-.787-3.83-2.058-6.821-6.976-6.782-18.037.143-36.078.076-54.117.005-4.576-.017-6.736,1.987-6.687,6.6.082,7.6-.008,15.2.02,22.8.017,4.43,1.693,7.635,6.524,8.347.466,3.47,2.726,4.641,5.927,4.655,16.834.07,33.688-.581,50.465,1.463a1.646,1.646,0,0,1,1.276.353m514.167-30.638v-.082c-7.035,0-14.074-.126-21.106.032-8.167.185-11.442,3.88-9.714,11.744a29.891,29.891,0,0,1-.255,14.822c-2.355,8.755.442,11.552,9.119,10.082,12.385-2.1,24.945-.7,37.425-1.572,9.279-.646,15.22-2.8,15.442-12.572.09-3.929-.042-7.866.16-11.787.367-7.076-3.208-10.458-9.97-10.63-7.029-.178-14.067-.039-21.1-.039M729.2,189.688c4.1,2.755,8.023,3.195,9.946,6.816.834,1.574,3.29,2.214,3.708-.269.8-4.731,5.581-3.842,8.242-6.007-9.474-7.747-9.464-7.732-17.786-2.316a33.26,33.26,0,0,1-4.111,1.776M365.865,59.3c-2.364-3.195-5.423-4.714-7.841-6.973-3.557-3.322-4.337,2.549-6.871,3.589-2.16.887-3.214,2.569-.877,5.832,6.959,9.722,10.252.068,15.588-2.449M202.09,199.079c-2.077,1.939-5.292,3.533-5.693,5.659-.552,2.925,3.144,4.6,5.537,4.789,2.559.2,6.017-1.876,5.691-4.568-.252-2.08-3.453-3.8-5.535-5.88" transform="translate(18.962 0)" fill="rgba(209,193,150,0.19)"/>
    <path id="Path_3444" data-name="Path 3444" d="M918.321,310.1c4.478,3.7,1.39,6.046-1.915,6.923a55.015,55.015,0,0,1-13.982,1.706q-444.643.128-889.288.044c-3.525,0-7.389,1.207-10.519-1.664l4.84-.632c-4.077-11.472,5.834-6,8.556-6.016,67.985-.348,135.972-.229,203.959-.289,2.748,0,6.5,1.767,7.739-2.8,2.513-.24,5.027-.693,7.54-.688,27.54.065,55.082.267,82.622.212,2.762-.005,7.212,2.247,7.727-3.428q1.06-3.25,2.123-6.5c2.671-5.3,7.387-6.308,12.823-6.988,5.9-.737,10.113,4.49,15.826,3.518,2.269,14.431,3.975,15.337,23.406,12.419-11.913-7.442-13.62-10.451-13.658-23.688-.009-2.809-.277-5.618-.425-8.427q8.024-.189,16.054-.381c.36,3.642-2.6,2.739-4.541,3.428-7.367,2.612-1.373,7.685-1.246,11.1.153,4.118,1.866,9.238,6.859,11.338.212.09.794-.7,1.208-1.077,6.66-6.05,14.907-8.332,23.473-9.855,4.284,4.717,3.778,14.275,13.585,13.415,35.191.173,70.383.172,105.567.666,7,.1,9.675-2.67,9.912-9.039,9.7-4.682,19.332-3.65,28.935.311,2,2.4-.034,5.387,1.185,7.934.76,1.586-.41,4.22,2.437,4.643,3.171.471,3.462-2.143,4.148-4.179a41.041,41.041,0,0,0,.943-4.06c1.524-1.343,1.349-3.052,1.037-4.791l-.233-.032c10-1.139,20.109-3.219,29.122,3.591q1.116,4.152,2.235,8.3c2.2,3.377,5.642,1.817,8.478,1.835,14.822.1,29.647-.172,44.471-.153,42.911.051,85.822.209,128.733.248,7.6.007,15.194-.357,22.792-.549,32.348.022,64.7-.015,97.041.155,3.322.017,7.224-1.682,9.97,1.886q-118.34,0-236.682,0c0,.522.005,1.042.007,1.563ZM598.2,297.454c.141-.5.226-.8.313-1.1-.192.058-.545.11-.549.173a3.791,3.791,0,0,0,.236.928" transform="translate(1.83 191.22)" fill="#705225"/>
    <path id="Path_3445" data-name="Path 3445" d="M480.842,86.467a21.037,21.037,0,0,0,.146,4.214c3.071,13.022,3.176,13.168-9.223,19.648-6.673,3.487-9.421,7.992-7.533,15.745,1.71,7.024,2.14,14.36,3.11,21.56.651,4.84-1.625,7.392-6.337,8.135-10.516,1.655-20.967,3.97-31.542,4.928-17.893,1.623-35.5,4.966-53.206,7.727-2.8.437-4.994,1.365-5.715-2.362,2.566-1.586,1.637-4.133,1.767-6.388,4.617-1.128,9.229-3.2,13.853-3.225,21.465-.1,42.012-7.464,63.494-7.486,8.257-.008,11.3-4.853,9.459-12.946-2.185-9.612-2.445-19.414-3.118-29.18,5.448-2.828,10.879-5.69,16.348-8.476,4.609-2.349,5.664-5.486,3.231-10.261-3.394-6.663-8.069-12.677-10.217-19.969,7.309,4.3,8.769,13.532,15.483,18.336" transform="translate(259.148 47.649)" fill="rgba(209,193,150,0.76)"/>
    <path id="Path_3446" data-name="Path 3446" d="M427.751,62.765c5.19-2.666,10.363-5.363,15.571-7.994,9.686-4.894,11.557-4.043,15.164,6.791l-.16.112c-1.953-1.8-3.525-.445-5.287.5C432.757,73,412.307,83.525,392.22,94.7c-7.389,4.111-16.445,5.554-21.91,12.932q-1.912-.966-3.822-1.93c-3.423-5.89-1.56-9.34,4.42-12.438,19.094-9.885,37.916-20.3,56.842-30.5" transform="translate(255.121 36.307)" fill="#dbe3c0"/>
    <path id="Path_3447" data-name="Path 3447" d="M447.861,73.92c2.148,7.292,6.823,13.306,10.217,19.969,2.434,4.775,1.378,7.912-3.231,10.261-5.469,2.787-10.9,5.649-16.353,8.476-3.837-3.652-1.766-8.493-2.507-12.756-1.521-8.755-5.217-12.064-13.16-8.652-9.088,3.9-18.2,1.81-27.256,2.7-.2-3.079,2.547-3.416,4.35-4.386,11.8-6.345,23.484-12.939,35.585-18.652,5.674-2.68,6.964-5.618,4.09-10.835l.24-.194c3.574,3.265,4.316,8.164,6.937,11.981a1.4,1.4,0,0,0,1.045,1.939Zm-3.38,15.753c.685-4.966-1.718-7.717-5.554-8.626-4.4-1.043-2.884,3.575-3.191,5.108-.841,4.2,3.013,5.465,6.165,6.483,3.6,1.162,2.335-1.912,2.58-2.965" transform="translate(276.646 41.86)" fill="#dbe3c0"/>
    <path id="Path_3448" data-name="Path 3448" d="M563.136,304.116c-7.6.192-15.194.554-22.792.547-42.911-.039-85.82-.2-128.731-.248-14.825-.017-29.649.251-44.473.155-2.835-.019-6.274,1.541-8.477-1.837,12.662.07,25.329-.029,37.984.282,5.878.144,6.869-3.225,7.34-7.9.532-5.288-2.3-6.026-6.592-5.948-13.5.24-27.008.277-40.511.393q-.041-1.912-.08-3.825c13.372.088,26.755-.105,40.114.387,6.24.231,7.982-2.2,6.9-7.792l11.812-1.514q5.124.064,10.247.124l3.378.885c-.024,3.5-.224,6.592-2.06,10.1-4.3,8.217-.483,15.062,7.363,15.08q64.336.02,128.67.042a.808.808,0,0,1-.1,1.064M415.294,295.8c2.031-.007,4.575-.26,4.655-2.493.1-2.8-2.739-2.131-4.519-2.107s-4.417-.422-4.135,2.6c.211,2.243,2.388,1.847,4,2" transform="translate(249.541 193.599)" fill="#dbe3c0"/>
    <path id="Path_3449" data-name="Path 3449" d="M434.264,58.488c-18.926,10.206-37.748,20.617-56.842,30.5-5.98,3.1-7.843,6.548-4.42,12.439-.423,2.17-1.71,3.181-3.909,3.744-5.63,1.436-7.853,5.642-6.373,10.845,3.552,12.487,3.559,25.47,5.465,38.159,1.5,10.006,4.882,14.013,14.664,12.562-.131,2.255.8,4.8-1.767,6.39-9.442,5.321-12.538-5.387-13.9-8.584a93.154,93.154,0,0,1-5.164-18.063c-1.64-8.451-1.407-17.456-5.331-25.572-1.237-2.559-1.733-6.673-.508-8.993,3.36-6.359,10.742-10.992,7.346-19.944-.245-.646,1.563-2.981,2.469-3.011,12.1-.408,19.264-10.851,30.036-14.509,9.907-3.365,18.43-10.789,27.562-16.424l10.672.459" transform="translate(248.608 40.584)" fill="rgba(209,193,150,0.76)"/>
    <path id="Path_3450" data-name="Path 3450" d="M228.659,293.658c-1.237,4.57-4.993,2.8-7.739,2.8-67.987.059-135.976-.061-203.961.287-2.721.015-12.631-5.455-8.556,6.018q-2.419.316-4.84.632-.839-.051-1.677-.139c-.877-3.259-.974-6.464.656-9.552q1.552-.337,3.1-.671l.088-.014,4.135.311c2.541,2.687,5.848,1.6,8.821,1.6q97.912.13,195.824.049c4.113-.005,8.483,1.193,12.361-1.366l1.786.042" transform="translate(0.883 204.932)" fill="#705225"/>
    <path id="Path_3451" data-name="Path 3451" d="M639.058,295.646H401.922l-.005-1.563q118.34,0,236.681,0a2.166,2.166,0,0,1,.461,1.565" transform="translate(281.091 205.673)" fill="#bfac8f"/>
    <path id="Path_3452" data-name="Path 3452" d="M223.331,293.846c-3.876,2.561-8.249,1.361-12.36,1.366q-97.912.117-195.826-.049c-2.974,0-6.281,1.086-8.821-1.6q41.32-.224,82.642-.45l75.056-.42,18.974.367a209.989,209.989,0,0,0,33.26-.008c1.4,0,2.79,0,4.177,0l2.9.792" transform="translate(4.423 204.702)" fill="#bfac8f"/>
    <path id="Path_3453" data-name="Path 3453" d="M3.424,293.424c-1.63,3.088-1.535,6.293-.656,9.552-3.241-3.421-4.352-6.7.656-9.552" transform="translate(0 205.214)" fill="#d5dbed"/>
    <path id="Path_3454" data-name="Path 3454" d="M419.989,57.59c1.92.566,2.569,2.08,2.875,3.849l-.24.194q-1.4-1.963-2.8-3.927Z" transform="translate(293.617 40.277)" fill="#922549"/>
    <path id="Path_3455" data-name="Path 3455" d="M426.78,68.845a1.4,1.4,0,0,1-1.045-1.941q.523.971,1.045,1.941" transform="translate(297.684 46.791)" fill="#adafce"/>
    <path id="Path_3456" data-name="Path 3456" d="M3.928,293.194l-.088.014,0-.433Z" transform="translate(2.686 204.759)" fill="#206eb4"/>
    <path id="Path_3457" data-name="Path 3457" d="M129.31,127.485c-10.074-.268-11.666-2-9.357-11.4a40.543,40.543,0,0,0,.851-10.869c-.37-15.277-.95-30.551-1.286-45.83-.075-3.327,1.244-6.1,5.231-6.352,1.405-.087,2.819-.054,4.228-.054q97.265,0,194.531-.01c5.924,0,11.841-.085,11.056,8.536-3.57,9.387-.766,19.154-1.706,28.7q0,.879,0,1.762c.015,9.279.073,18.559.012,27.837-.014,2.126.664,5.275-2.3,5.6-7.688.839-15.412,4.293-23.166.916-7.9-3.443-15.745-2.8-23.7-.573-51.457,1.246-102.964-1.929-154.392,1.738m157.462-18.273c4.751,4.41,9.5,8.918,14.241-.012,9.469,1.5,14.637-2.321,15.1-12.077.037-.8.78-1.58.8-2.377.17-8.341.353-16.435-6.629-23.049-5.732-5.43-13.272-4.51-19.319-4.746-4.96-.194-15.25.27-14.378,11.1-8.66,9.705-8.668,14.088-.042,22.642-.612,7.654,4.4,8.578,10.227,8.521m-110.7-.008c11.736.082,20.61-7.963,20.688-18.756a20.071,20.071,0,0,0-20.3-20.472c-10.655-.025-20,9.426-19.81,20.031.2,11.014,8.4,19.12,19.426,19.2m41.251-20.078c.687,14.931,6.257,20.777,19.271,20.224,10.054-.427,19.069-10.558,18.578-20.877a19.45,19.45,0,0,0-19.981-18.579c-11.775.427-18.4,7.562-17.867,19.232" transform="translate(83.242 37.045)" fill="#fefdfd"/>
    <path id="Path_3458" data-name="Path 3458" d="M379.325,162.579c9.165,6.745,17.233,16.3,30.723,11.969.4,8.607-.051,17.422,6.046,24.636a3.879,3.879,0,0,1,.389,1.215c-3.146.075-4.918-3.186-9.1-2.145-8.624,2.15-17.747,2.739-26.378-6.009v39.329c-3.205-.556-4.17,2.053-5.756,3.932-6.92,8.2-15.6,11.549-26.5,11.233-8.381-.243-13.445-6.068-20.112-9.121.143-3.3-1.334-4.831-4.7-4.311.721-3.776-1.817-6.944-1.983-10.555q-.15-1.8-.3-3.6-.023-1.5-.048-3c.34-3.9,1.037-6.342,6.176-4.214,5.9,2.444,11.1,6.58,17.634,7.51a75.4,75.4,0,0,0,5.771,6.072c5.27,4.471,10.844,6.383,17.223,1.761,5.763-4.175,8.991-9.579,7.081-16.562-1.942-7.1-7.083-11.2-14.693-11.632-2.794-.158-5.6-.126-8.395-.18-1.094-2.243-3.361-2.634-5.351-3.643-14.547-7.375-13.394-3.339-5.04-16.693,4-6.385,4.847-11.476.418-17.49-.935-1.269-1.234-3.006-1.825-4.527l.775.168.771-.185c3.239,3.463,6.8,6.2,11.976,5.314,3.9,3.487,7.523.25,11.251-.461,4.131,1.681,8.22-5.158,12.368-.061l.54.488c-.041.78.275,1.077,1.042.758" transform="translate(224.921 109.481)" fill="rgba(209,193,150,0.76)"/>
    <path id="Path_3459" data-name="Path 3459" d="M185.663,150.407c12.3,6.962,25.786,9.528,39.652,10.772a15.6,15.6,0,0,0,9.676-2.374c5.01,1.414,1.689,6.259,3.681,8.917,1.507,9.717,8.283,7.457,14.54,6.376,3.956,12.548,1.336,25.348,1.339,38.039,0,1.74-2.08,2.413-3.771,2.889-14.6,4.123-28.371,12.19-44.444,9.335,4-10.563,2.583-22.444,7.97-32.669.076-3.536,5.516-9.386-1.169-10.1-13.972-1.487-26.006-8.036-38.943-12.161,4.026-5.761,8.2-11.435,9.98-18.426.078-.306.974-.406,1.489-.6" transform="translate(121.827 105.191)" fill="rgba(156,140,34,0.68)"/>
    <path id="Path_3460" data-name="Path 3460" d="M207.8,156.48c-12.407-9.041-12.426-18.052-.054-26.767,3.392-.89,7.338,1.473,10.332-1.754q3.316-1.817,6.633-3.632c1.349-.02,2.959.562,3.434-1.478l.025-.037.673.08.642-.221c6.685.3,11.972,5.967,19,4.95a3.275,3.275,0,0,0,1.217.921c2.148,5.134,2.593,12.433,8.395,14,9.255,2.5,15.308,7.688,19.507,15.791a35.371,35.371,0,0,1-.2,14.193c-.678,3.256-4.133,5.472-3.13,9.33,2.228,8.572-1.8,14.039-9.126,17.765-3.31-.114-6.043.005-8.07-4.1A31.605,31.605,0,0,0,241.772,180.6c1.71-6.441-1.606-14.555,6.767-18.832a4.667,4.667,0,0,0,1.7-6.6c-1.626-2.42-3.375.163-5.066.738-6.3,2.14-12.31,1.847-17.164-3.156-2.027-2.089-3.722-2.561-5.526-.416-4.009,4.763-9.294,4.524-14.681,4.146" transform="translate(138.811 85.793)" fill="#161534"/>
    <path id="Path_3461" data-name="Path 3461" d="M108.779,191.354c-4.831-.712-6.507-3.919-6.524-8.349-.029-7.6.061-15.2-.02-22.8-.049-4.616,2.111-6.621,6.687-6.6,18.039.071,36.079.138,54.117-.005,4.918-.039,6.187,2.952,6.976,6.782-.068,9.42.049,18.846-.3,28.256-.121,3.217,1.31,7.389-3.266,9.187a1.64,1.64,0,0,0-1.276-.353c-1.914-4.252-5.122-6.422-9.872-6.385-15.507.122-31.012.184-46.519.267m30.539-19.006c.039-4.57-.374-4.668-15.3-4.711-2.685-.008-4.974,1.292-4.532,3.694,1.9,10.358,10.806,2.15,15.8,5.469,2.517,1.67,4.17-1.518,4.029-4.452m8.541,4.349c2.568-.817,4.784-2.345,4.6-5.149-.2-3.064-3.016-3.859-5.565-3.873-2.62-.015-3.983,1.779-4,4.389-.017,3.249,2.326,4.073,4.957,4.633" transform="translate(71.5 107.425)" fill="#f7e8d2"/>
    <path id="Path_3462" data-name="Path 3462" d="M426.532,333.861q-5.124-.061-10.249-.122c1.066-6.741-.564-13.666,1.655-20.374,1.382-4.179-.719-6.345-5.047-6.279-6.116.093-12.232.255-18.348.387-11.814.1-23.659-1.295-35.432.715q-.706-1.9-1.411-3.807c-.894-8.024.768-16.244-1.828-24.141,5.613,3.178,11.32,3.931,17.176.644,4.512,3.5,8.886,4.3,12.965-.659l.019-.01q29.133.2,58.268.382c4.529.02,9.945-1.65,8.208-6.6-5.966-17.016-5.093-34.484-5.37-51.938q.112-13.309.226-26.617c3.652-.163,4.585,1.738,4.911,5.183,2.09,22.027,4.238,44.053,6.823,66.024.79,6.709,1.737,13.345,1.6,20.122-.078,4.005-1.184,4.811-5.606,4.5-27.348-1.9-54.761-.554-82.146-.778-6.5-.053-5.443,5.09-5.591,9.241-.187,5.26,2.931,4.485,6.694,4.386,13.274-.347,26.561-.265,39.842-.116,6.024.068,13.2,11.522,10.828,17.1-2,4.707-2.823,9.068,1.81,12.754" transform="translate(248.888 136.679)" fill="#c4bfd4"/>
    <path id="Path_3463" data-name="Path 3463" d="M455.7,161.649c7.035,0,14.073-.138,21.1.041,6.762.172,10.336,3.553,9.97,10.628-.2,3.922-.071,7.86-.16,11.787-.224,9.773-6.165,11.926-15.444,12.572-12.48.868-25.039-.525-37.425,1.572-8.677,1.47-11.474-1.327-9.117-10.082a29.9,29.9,0,0,0,.253-14.82c-1.727-7.866,1.548-11.559,9.715-11.744,7.032-.16,14.069-.034,21.1-.034Zm-8.51,20.063c1.348-2.43,6.257,1.268,6.169-2.937-.075-3.506-3.708-3.516-6.507-3.543-2.177-.02-4.909-.335-4.605,3.074.236,2.654,2.185,3.643,4.943,3.406m17.41-6.566c-2.133.1-3.943.607-3.954,3.254-.01,2.474,1.356,3.572,3.72,3.44,2.8-.156,3.971-2.219,4.029-4.52.058-2.316-2.148-2.07-3.795-2.173" transform="translate(296.413 112.963)" fill="rgba(241,156,17,0.46)"/>
    <path id="Path_3464" data-name="Path 3464" d="M245.527,156.759a31.6,31.6,0,0,1,15.306,14.922c2.027,4.106,4.76,3.987,8.074,4.1-5.037,1.02-7.095,3.633-6.619,9.168.644,7.467-.408,15.089.345,22.535.911,9.012-1.217,16.312-8.56,21.847l-1.812-.063a2.193,2.193,0,0,0-1.6.059c-6.33.253-11.834,3.237-17.636,5.263-5.931,2.072-11.952,4.813-17.809-.265-1.179-10.353-2.467-11.512-12.965-11.761-3.047-.073-6.092-.206-9.139-.311,0-.785,0-1.572,0-2.347,16.068,2.865,29.836-5.2,44.439-9.323,1.691-.478,3.771-1.15,3.769-2.891,0-12.691,2.619-25.491-1.334-38.039,3.163-3.083,6.682-6,5.173-11.224q.184-.836.369-1.672" transform="translate(135.057 109.633)" fill="rgba(209,193,150,0.76)"/>
    <path id="Path_3465" data-name="Path 3465" d="M176.567,244.743q.186-5.177.369-10.348c.853-2.869,2.5-5.768,2.413-8.614-.252-8.346,4.2-9.642,10.969-8.276,2.942,27.785,5.339,55.644,9.177,83.305,1.077,7.778-.928,8.516-7.272,8.541-18.11.075-18.11.235-19.342-14.037-.291-6.009,1.434-12.334-2.792-17.725l.257-.284a3.256,3.256,0,0,0,3.173-2.121c4.478-9.826,2.688-20.234,3.049-30.443" transform="translate(118.956 151.791)" fill="#bfac8f"/>
    <path id="Path_3466" data-name="Path 3466" d="M135.215,320.162c-.969-.265-1.937-.529-2.9-.794,5.715-.6,7.549-3.547,7.508-9.418-.116-16.341-.972-32.7.338-49.046.282-3.538.624-6.2,5.027-5.8,3.988.506,3.453,3.669,3.8,6.361a2.25,2.25,0,0,0,2.1,2.2c1.256.114,2.575-.484,2.546-1.579-.216-8.208,5.71-6.39,10.446-6.549l-.034-.02q.166,11.045.328,22.088c-1.331.493-1.22.972.012,1.438-.141,10.988-.124,21.983-.495,32.965-.163,4.869,1.786,6.436,6.458,6.288,8.182-.258,16.384-.309,24.564-.039,4.712.155,6.441-1.431,6.481-6.247.059-7.124-.924-14.343,1.292-21.4.7,7.255.647,14.506.726,21.755.022,2.094-.836,5.433,2.355,5.4,9.714-.1,19.6,2.525,29.121-1.456-.515,5.673-4.966,3.423-7.727,3.428-27.54.054-55.08-.148-82.622-.212-2.513-.005-5.027.447-7.538.688l-1.786-.042m18.827-6.063c-.168-1.907-.11-4.155-2.935-3.851-2.121.228-2.255,2.116-2.187,3.774.061,1.557-.217,3.56,2.048,3.827,2.753.323,2.964-1.732,3.074-3.751" transform="translate(92.54 178.386)" fill="#dbe3c0"/>
    <path id="Path_3467" data-name="Path 3467" d="M346.126,124.753c3.208-.43,3.987-3.679,6.182-5.341,6.49-4.91,16.666-4.6,19.951,2.541,3.091,6.716,7.992,11.6,12,17.346-1.643,11.051-2.785,12.025-13.93,12.164-3.069.037-6.136.241-9.2.369-3.711-.972-5.951-.233-7.868,3.793-1.066,2.24-5.515,7.965-8.053,2.342-2.157-4.775-3.543-7.831-8.493-5.4-4.757,2.337-5.868,6.218-1.944,10.949,2.744,3.307-.952,2.484-2.454,2.931-6.662-5.591-8.718-23.1-3.5-29.805a8.563,8.563,0,0,1,5.44-3.6c4.559-.607,4.779-3.885,4.991-7.3,2.287-.365,4.8.856,6.876-1" transform="translate(227.91 81.198)" fill="#161534"/>
    <path id="Path_3468" data-name="Path 3468" d="M280.891,141.507l-.641.219-.675-.078c-.082-9.272-.566-18.564-.107-27.81.323-6.5-2.1-8-8.247-7.97-45.888.228-91.778-.024-137.665.277-6.808.044-9.3-2.085-8.408-8.57,51.43-3.667,102.935-.493,154.392-1.738l.78,6.786.571,38.885" transform="translate(87.404 66.957)" fill="#adafce"/>
    <path id="Path_3469" data-name="Path 3469" d="M391.712,194.371c-6.1-7.212-5.642-16.029-6.046-24.636,5.419-7.185,12.349-7.581,20.066-4.456a76.239,76.239,0,0,0-9.238.352c-2.119.323-5.484,2.393-2.721,4.141,4.563,2.886,2.442,4.818.35,7.066a7.4,7.4,0,0,0-1.072,9.28c1.725,2.816,4.969,3.931,8.748,3.679,11.556-.77,14.462-3.74,14.341-15.561,8.57,6.626,10.6,12.9,7.3,21.791-.551,1.485-.241,3.29-.331,4.947-1.708,2.451-6.7-1.949-7.032,3.365a11.53,11.53,0,0,1-1.589-.009c-.619-1.144-1.21-1.108-1.776.041a9.424,9.424,0,0,1-1.654,0c-4.257-2.843-4.257-2.843-3.195-4.009,3.171-3.48,2.928-3.713-1.329-5.139-3.643-1.222-6.633.958-8.925,2.264-3.713,2.117,2.366,4.106,1.511,6.808q.049,1.751.1,3.5l-3.489-.212c-3.341-2.69-6.65-7.107-10.178-.2q-5.192.405-10.388.812c-7.108-2.456-10.924,1.575-11.671,7.544-1.28,10.22-1.417,20.593-1.837,30.91a73.223,73.223,0,0,1-4.68,21.936q-.255-14.275-.512-28.551.079-6.638.158-13.277V187.433c8.633,8.75,17.753,8.159,26.379,6.011,4.182-1.042,5.955,2.218,9.1,2.145l1.305.76c.622-1.674-.622-1.752-1.7-1.976" transform="translate(249.302 114.293)" fill="#adafce"/>
    <path id="Path_3470" data-name="Path 3470" d="M237.937,168.967c-.122.557-.246,1.115-.367,1.669-.763-.168-2.192-.5-2.2-.479-2.9,11.51-10.4,7.815-17.521,5.331-1.992-2.658,1.329-7.5-3.681-8.915-7.284-5.424-10.089-12.946-10.208-21.725,5.389.376,10.672.617,14.681-4.146,1.806-2.146,3.5-1.672,5.526.415,4.855,5,10.864,5.3,17.164,3.157,1.691-.574,3.44-3.159,5.066-.739a4.666,4.666,0,0,1-1.7,6.6c-8.373,4.279-5.057,12.394-6.767,18.834" transform="translate(142.647 97.426)" fill="#ea9da1"/>
    <path id="Path_3471" data-name="Path 3471" d="M151.32,279.282l-.331-22.09c6.32-1.261,12.614-2.377,19-.19,5.5,1.885,9.007-2.787,13.464-4.335,4.221,5.4,2.5,11.722,2.789,17.728-4.942,1.1-.947,6.784-4.442,8.628l-30.478.26" transform="translate(105.598 176.708)" fill="#edf6e5"/>
    <path id="Path_3472" data-name="Path 3472" d="M402.789,153.594c-2.072,1.852-4.588.63-6.876,1-.141-18.523-.427-37.046-.36-55.57.031-8.818-2.9-15.52-11.275-19.24-2.736-2.146-5.96-1.326-8.991-1.363-15.791-.2-31.585-.292-47.377-.423-2.4-2.184-5.36-1.326-8.087-1.336q-27.481-.1-54.96.014c-2.722.012-5.688-.887-8.075,1.344-4.084.493-8.25,1.7-11.93-1.359,0-.588,0-1.176,0-1.762q69.536-.018,139.073-.032c11.838,3.531,15.5,12.344,15.458,23.659q-.087,23.959.017,47.916c.01,2.826-1.363,6.49,3.385,7.158" transform="translate(171.246 52.357)" fill="#705225"/>
    <path id="Path_3473" data-name="Path 3473" d="M187.655,232.534c-6.769-1.366-11.219-.07-10.969,8.276.085,2.848-1.558,5.747-2.411,8.616-.063-4.784.022-9.569-.221-14.338-.377-7.368-.967-14.317,10.278-12.784,3.63.495,5-3.089,4.106-6.641-1.738-6.894,2.835-11.688,5.661-17,1.456-2.736,4.24-3.528,7.314-2.923-2.306,8.335-6.551,16.929,3.1,23.706.172,2.151-2.428,4.814,1.169,6.339q1.02,2.648,2.038,5.3c-6.539,2.546-13.413.471-20.065,1.451" transform="translate(121.62 136.76)" fill="#c4bfd4"/>
    <path id="Path_3474" data-name="Path 3474" d="M346.62,142.285c3.067-.127,6.135-.333,9.2-.37,11.144-.138,12.286-1.113,13.93-12.164,1.783,1.784,3.324,3.944,5.4,5.277,4.925,3.164,5.576,9.013,2.439,11.45-7.9,6.131-6.7,15.531-10.312,23.064-1.912,3.982-8.369,4.692-7.03,10.533-4.15-5.1-8.239,1.74-12.366.058-.573-4,4.615-5.747,3.846-9.821,8.995,1.135,6.483-5.465,6.837-10.14.129-15.736.129-15.736-11.943-17.886" transform="translate(242.418 90.744)" fill="#adafce"/>
    <path id="Path_3475" data-name="Path 3475" d="M194.4,219.618c-9.652-6.78-5.406-15.373-3.1-23.71q2.569-.3,5.139-.607c3.047.1,6.094.235,9.141.308,10.5.25,11.783,1.409,12.963,11.763q-.229.971-.454,1.936c-1.886.1-4.921-.639-5.35,1.071-2.609,10.405-10.72,9.2-18.338,9.24" transform="translate(131.731 136.589)" fill="#ea9da1"/>
    <path id="Path_3476" data-name="Path 3476" d="M162.308,165.951c-.071-1.407-.158-2.814-.214-4.223-.286-7.178-.874-14.887,8.092-17.3,7.994-2.155,15.622-1.58,19.23,7.849-.955,1-2.564,1.879-2.755,3-1.341,7.916-5.725,11.454-13.585,14.1-5.99,2.021-6.682-4.493-10.769-3.428" transform="translate(113.275 100.28)" fill="#ea9da1"/>
    <path id="Path_3477" data-name="Path 3477" d="M401.565,173.471c.119,11.821-2.785,14.793-14.343,15.563-3.779.252-7.023-.863-8.75-3.681a7.4,7.4,0,0,1,1.074-9.279c2.094-2.25,4.211-4.18-.35-7.068-2.763-1.749.6-3.819,2.721-4.14a76.26,76.26,0,0,1,9.24-.353c3.866,2.52,8.393,4.284,10.409,8.957" transform="translate(263.88 115.057)" fill="#ea9da1"/>
    <path id="Path_3478" data-name="Path 3478" d="M384,86.659l-139.074.032c.94-9.545-1.864-19.312,1.706-28.7,7.717,1.329,6.826,7.064,6.849,12.7.066,16.526-2.293,14.244,14.275,14.3,35.813.117,71.625.012,107.436.093,2.964.007,6.269-1.113,8.808,1.572" transform="translate(171.176 40.558)" fill="#adafce"/>
    <path id="Path_3479" data-name="Path 3479" d="M174.424,161.605c12.936,4.123,24.969,10.672,38.939,12.159,6.685.712,1.247,6.56,1.171,10.1-10.5-.644-18.144-8.441-27.866-11.107-4.867-1.336-10.942-1.091-12.538-7.805q-.133-1.583-.262-3.164Z" transform="translate(121.599 113.023)" fill="rgba(209,193,150,0.76)"/>
    <path id="Path_3480" data-name="Path 3480" d="M106.085,175.928c15.507-.083,31.014-.144,46.519-.267,4.75-.037,7.958,2.133,9.872,6.385-16.775-2.046-33.629-1.4-50.463-1.465-3.2-.014-5.462-1.183-5.927-4.653" transform="translate(74.193 122.853)" fill="#c4bfd4"/>
    <path id="Path_3481" data-name="Path 3481" d="M418.231,201.04q-.112,13.309-.226,26.622c-3.521-.043-2.911-2.726-2.989-4.83-.175-4.745-.2-9.5-.326-14.244-.359-13.632-3.8-17.2-17.12-17.8q-.023-1.6-.044-3.188c4.444.015,8.969-.5,13.316.156,9.28,1.4,11.235,5.265,7.389,13.282" transform="translate(278.02 131.079)" fill="rgba(209,193,150,0.76)"/>
    <path id="Path_3482" data-name="Path 3482" d="M140.019,195.045c4.576-1.8,3.146-5.97,3.266-9.187.352-9.409.235-18.836.3-28.256,5.039-.353,5.039,3,5.011,6.583-.075,9.744.042,19.49-.082,29.233-.027,2.26,1.183,5.676-2.456,6.091a5.135,5.135,0,0,1-6.041-4.464" transform="translate(97.926 110.205)" fill="#c4bfd4"/>
    <path id="Path_3483" data-name="Path 3483" d="M162.167,162.293c4.087-1.066,4.779,5.448,10.769,3.428,7.86-2.649,12.244-6.187,13.585-14.1.19-1.123,1.8-2.007,2.755-3a5.352,5.352,0,0,1,4.8,3.047c-.517.2-1.412.294-1.49.6-1.778,6.99-5.956,12.665-9.982,18.426l-.551.177c-2.779-.683-5.548-2.525-8.354-.07-5.022-1.242-11.07-1.1-11.532-8.5" transform="translate(113.416 103.938)" fill="#adafce"/>
    <path id="Path_3484" data-name="Path 3484" d="M176.647,233.363c-.36,10.208,1.429,20.617-3.049,30.443a3.256,3.256,0,0,1-3.173,2.121c-.119-8.9-.032-17.806-.437-26.69-.236-5.175,2.427-6.194,6.658-5.873" transform="translate(118.876 163.171)" fill="#d6e5cf"/>
    <path id="Path_3485" data-name="Path 3485" d="M406.329,303.39c-7.846-.019-11.661-6.864-7.363-15.08,1.835-3.511,2.036-6.607,2.061-10.1,1.244.71,1.377-4.4,3.64-.372,4.716,8.4.87,17.072,1.662,25.555" transform="translate(277.773 193.217)" fill="#adafce"/>
    <path id="Path_3486" data-name="Path 3486" d="M440.258,113.923a33.268,33.268,0,0,0,4.109-1.774c8.322-5.418,8.313-5.433,17.786,2.315-2.66,2.165-7.443,1.278-8.242,6.007-.418,2.483-2.872,1.842-3.706.269-1.925-3.621-5.844-4.06-9.946-6.816" transform="translate(307.906 75.764)" fill="#fefdfd"/>
    <path id="Path_3487" data-name="Path 3487" d="M233.411,38.179c-5.336,2.518-8.628,12.171-15.588,2.449-2.335-3.263-1.283-4.945.877-5.831,2.535-1.04,3.314-6.911,6.872-3.589,2.417,2.258,5.477,3.776,7.839,6.971" transform="translate(151.415 21.122)" fill="#fefdfd"/>
    <path id="Path_3488" data-name="Path 3488" d="M158.784,256.954c-4.738.16-10.664-1.659-10.448,6.549.029,1.094-1.29,1.693-2.544,1.579a2.253,2.253,0,0,1-2.1-2.2c-.345-2.692.189-5.854-3.8-6.361,6.378-3.446,12.735-5.91,18.892.428" transform="translate(97.837 176.964)" fill="#d1c196"/>
    <path id="Path_3489" data-name="Path 3489" d="M132.444,117.148c2.082,2.075,5.283,3.8,5.535,5.88.326,2.692-3.132,4.765-5.691,4.568-2.393-.185-6.089-1.864-5.537-4.789.4-2.126,3.616-3.72,5.693-5.659" transform="translate(88.608 81.93)" fill="#fefdfd"/>
    <path id="Path_3490" data-name="Path 3490" d="M143.547,293.327a209.58,209.58,0,0,1-33.26.008,134.377,134.377,0,0,1,33.26-.008" transform="translate(77.132 204.426)" fill="#edf6e5"/>
    <path id="Path_3491" data-name="Path 3491" d="M401.709,188.933q.023,1.593.044,3.188l-.224.075-5.132-.331-2.843-1.281-2.009-1.7c.33-5.314,5.324-.916,7.032-3.366q1.568,1.708,3.132,3.414" transform="translate(273.837 129.747)" fill="#c4bfd4"/>
    <path id="Path_3492" data-name="Path 3492" d="M168.953,162.177c2.806-2.456,5.576-.613,8.354.07q.127,1.586.258,3.166c-3.047-.608-7.306,2-8.612-3.236" transform="translate(118.162 112.558)" fill="#c4bfd4"/>
    <path id="Path_3493" data-name="Path 3493" d="M214.263,125.879c-2.994,3.229-6.94.863-10.332,1.754,2.984-3.283,6.843-1.434,10.332-1.754" transform="translate(142.624 87.872)" fill="#adafce"/>
    <path id="Path_3494" data-name="Path 3494" d="M217.348,122.791c-.476,2.041-2.083,1.46-3.433,1.478a3.185,3.185,0,0,1,3.433-1.478" transform="translate(149.607 85.849)" fill="#adafce"/>
    <path id="Path_3495" data-name="Path 3495" d="M356,160.406c-.766.319-1.083.022-1.042-.758a1.283,1.283,0,0,1,1.042.758" transform="translate(248.246 111.654)" fill="#adafce"/>
    <path id="Path_3496" data-name="Path 3496" d="M395.628,77.756C404,81.476,406.934,88.178,406.9,96.995c-.066,18.523.221,37.046.362,55.571-.212,3.414-.433,6.692-4.993,7.3a8.551,8.551,0,0,0-5.438,3.594c-5.217,6.7-3.162,24.216,3.5,29.805.93,5.159,6.361,7.922,7.049,13.209-13.1.5-16.734,2.789-18.919,11.933q-.158.91-.32,1.818l-1.376,1.529c-4.627,8.2-11.962,14.625-15.357,23.642-2.354,6.25-.37,11.9,5.1,14.079,6.029,2.4,8.738,6.15,10.12,11.784q.023,1.5.048,3c-1.314,1.315-1.482,2.535.3,3.594.167,3.611,2.7,6.779,1.985,10.553q-1.315,20.112-2.632,40.228c-2.06,2.124-1.443,4.578-.865,7.027l.041-.037c-2.124.547-2.741,3.559-5.372,3.276-2.469-2.819-5.793-1.7-8.757-1.713q-40.642-.125-81.283-.024c-13.163.048-26.323.481-39.487.569-2.962.02-4.372,1.115-3.871,3.946,2.08,11.753.569,23.589.87,35.379.121,4.753,1.808,6.622,6.554,7.96,5.853,1.648,11.092-.661,16.639-.619,36.406.27,72.813.066,109.221.017q.7.925,1.394,1.851l.454,3.287-1.754,12.336a.864.864,0,0,0-.094,1.217c1.111,9.131-2.916,17.976-1.514,27.124-.24,6.369-2.914,9.138-9.912,9.039-35.186-.495-70.378-.493-105.567-.666.377-4.981-1.834-9.279-3.523-13.748-8.67-22.942-16.781-45.739-17.451-70.991-.343-12.987-.153-26.271-2.383-39.405-1.49-8.769-3.547-19.281,7.5-25.251,2.751-1.487,2.292-4.9,2.287-7.732-.015-10.431-.036-20.862.025-31.291.02-3.632-1.546-7.841,5.537-7.166,2.8.268,6-3.606,8.376-7.219,3.987-6.055,1.6-12.689,3.909-18.576,4.692-11.955,1.026-21.489-10.774-27.476-4.2-8.1-10.252-13.284-19.507-15.791-5.8-1.57-6.247-8.867-8.393-14,.751-1.919,3.134-3.8.139-5.805l-.066-28.261c.958-5.586,3.929-8.208,9.9-7.433,3.586.464,7.278.1,10.922.107a19.5,19.5,0,0,1-1.276,3.985c-4.245,7.37.636,12.832,4.085,18.306,4.191,6.655,11.308,8.363,18.389,7.459,7.338-.936,15.677-10.8,15.794-16.926.219-11.563-4.25-17.808-15.118-21.125-5.236.265-6.92-2.571-6.763-7.377.163-5.071.52-10.213-.087-15.218-.969-7.985,2.27-9.858,9.912-9.807,40.389.268,80.783-.012,121.176-.1M352.869,233.82c-.076-3.931-.707-8.162,3.214-10.749,6.495-4.282,9.313-11.887,15.357-16.543a4.793,4.793,0,0,0,1.037-6.794,3.875,3.875,0,0,0-6.527.207c-3.927,6.194-14.642,6.048-14.616,15.8,0,.676-.865,1.433-1.456,2.021-9.01,8.947-18.022,17.741-25.244,28.439-5.542,8.21-8.689,7.661-15.582.569-3.129-3.22-6.169-6.534-9.088-9.945-2.488-2.9-5.661-4.675-8.646-1.941-2.829,2.592-.579,5.861,1.4,8.222,4.826,5.759,11.236,9.9,15.332,16.6,2.656,4.344,14.654,3.281,17.407-.947,5.543-8.509,13.257-14.97,19.993-22.357,2.332-2.558,4.692-2.6,7.474-2.637-.02,7.335,0,14.669-.07,22-.122,13.444-17.25,32.3-30.708,33.858-22.432,2.6-38.511-6.646-45.676-27.894-3.074-9.117-3.732-19.194.749-28.546,10.777-22.493,35.481-25.863,55.446-18.457,2.24.833,4.61,3.727,6.213.022,1.258-2.906.97-6.638-2.94-7.637-8.779-2.243-16.846-6.825-26.66-5.824-5.722.581-9.844,4.084-14.883,5.068-10.336,2.019-17.83,9.122-21.9,16.868-10.672,20.33-12.317,42.418,6.638,61.582,14,14.159,38.43,18.246,55.084,9.9,17.716-8.876,27.384-23.4,28.672-43.254.709-10.927-2.692-16.775-10.018-17.641M315.588,93.55c0-.08,0-.158,0-.238,5.873,0,11.761.214,17.611-.175,1.225-.082,4.14-.659,3.846-2.981-.211-1.655-2.1-2.349-3.983-2.342q-16.811.056-33.622.015c-1.895,0-3.728.807-3.8,2.529-.085,2.163,1.755,3.2,3.973,3.195q7.986-.015,15.971,0" transform="translate(159.894 54.381)" fill="#fefdfd"/>
    <path id="Path_3497" data-name="Path 3497" d="M316.945,344.28c-1.4-9.148,2.624-17.993,1.512-27.124l.416-.595-.321-.624,1.754-12.334c3.7.314,4.741-1.577,4.94-5.049.714-12.448,1.212-24.88,2.5-37.335,1.863-18.017,2.7-36.3,4.354-54.45,6.668,3.052,11.731,8.878,20.112,9.121,10.9.316,19.584-3.03,26.5-11.233,1.585-1.88,2.551-4.488,5.756-3.932q-.079,6.643-.158,13.281c-3.04,9.4-.875,19.036-1.3,28.556-1.5,9.258,1.868,19.013-3.118,27.972-1.475,2.651,2.041,2.661,3.166,3.965q.125,1.045.246,2.092c2.6,7.9.936,16.115,1.828,24.136a14.066,14.066,0,0,1-.8,1.3c-4.8,9.55-3.094,19.082.077,28.611l.566.034q-.043,4.165-.085,8.33.038,1.914.078,3.825-.229,2.434-.455,4.869c-9.013-6.809-19.126-4.731-29.122-3.592-1.521-4.082-.913-8.337-.924-12.518-.065-22.661-.031-45.324-.031-67.987-2.257,22.411-6.016,44.653-5.331,67.183.148,4.862.19,9.753-3.231,13.807-9.6-3.961-19.237-4.993-28.934-.311m39.884-89.046c6.979-8.533,10.8-18.09,14.836-27.516.9-2.094,1.851-4.434-1.633-5.215-4.347-.974-14.03,6.06-14.1,10.665-.11,7.129-2.581,14.319.9,22.066" transform="translate(221.453 140.329)" fill="rgba(255,197,130,0.42)"/>
    <path id="Path_3498" data-name="Path 3498" d="M191.128,217.916c6.651-.981,13.525,1.094,20.065-1.451,6.871.554,13.886-1.05,20.632,1.375l4.126-.022c5.237.308,10.485.874,15.636-.712,3.011-1.033,4.83-1.29,5.8,3.05a145.606,145.606,0,0,1,3.567,24.675c-.8,9.969,1.439,19.6,3.241,29.277-1.156,13.029,1.3,25.742,3.38,38.489l-2.145.661q-8.027.191-16.049.379c-2.977-1.222-6.036-.739-9.087-.411l-29.07-.076c-10.72.117-21.439.209-32.157.36-5.147.073-10.351.335-10.13-7.139q.156-1.009.313-2.021c3.5-1.842-.5-7.532,4.442-8.628,1.232,14.275,1.23,14.115,19.341,14.04,6.345-.026,8.351-.763,7.272-8.541-3.837-27.661-6.233-55.52-9.177-83.305" transform="translate(118.146 151.379)" fill="rgba(209,193,150,0.76)"/>
    <path id="Path_3499" data-name="Path 3499" d="M256.58,143.657c11.8,5.987,15.466,15.52,10.774,27.476-2.311,5.887.078,12.521-3.91,18.576-2.379,3.613-5.576,7.486-8.375,7.219-7.083-.675-5.516,3.535-5.538,7.166-.059,10.429-.041,20.86-.024,31.291.005,2.836.464,6.245-2.287,7.732-11.044,5.97-8.988,16.482-7.5,25.251,2.231,13.134,2.041,26.418,2.384,39.405.67,25.253,8.781,48.05,17.451,70.991,1.687,4.469,3.9,8.767,3.523,13.748-9.809.86-9.3-8.7-13.59-13.413-.6-7.26-3.626-13.812-6.019-20.551q-4.01-11.914-8.021-23.829c-.573-2.17-1.247-4.318-1.7-6.512-3.365-16.326-3.674-32.948-4.782-49.491q-.2-6.26-.406-12.519,0-2.1.007-4.2a8.274,8.274,0,0,0-.024-6.332q.01-6.194.019-12.39l.729-4.777c7.343-5.535,9.469-12.835,8.558-21.847-.753-7.447.3-15.068-.343-22.537-.478-5.533,1.582-8.147,6.617-9.166,7.326-3.727,11.352-9.194,9.124-17.764-1-3.859,2.452-6.075,3.13-9.331a35.371,35.371,0,0,0,.2-14.193" transform="translate(159.838 100.47)" fill="#d5dbed"/>
    <path id="Path_3500" data-name="Path 3500" d="M181.554,269.5c-.221,7.474,4.981,7.212,10.13,7.139,10.718-.151,21.438-.243,32.157-.36q.158,1.573.311,3.146c-1.314,6.828-.214,13.673-.131,20.51q-1.063,3.253-2.124,6.5c-9.517,3.982-19.405,1.358-29.119,1.456-3.193.034-2.333-3.3-2.355-5.4-.078-7.25-.031-14.5-.726-21.755-2.216,7.059-1.234,14.278-1.293,21.4-.039,4.816-1.767,6.4-6.481,6.247-8.179-.27-16.382-.218-24.564.039-4.67.148-6.619-1.419-6.456-6.288.37-10.981.353-21.976.491-32.963q15.075.163,30.161.323m.167,24.462c-.455-2.688,1.32-7.28-3.21-7.3-7.078-.029-14.205-2.763-21.229.025-.5.2-.636,1.477-.839,2.279-1.976,7.8.144,10.438,8.429,10.779a37.118,37.118,0,0,1,8.334.974c6.1,1.7,9.452.364,8.516-6.758" transform="translate(105.531 188.253)" fill="#edf6e5"/>
    <path id="Path_3501" data-name="Path 3501" d="M261.565,319.594c2.393,6.738,5.421,13.291,6.019,20.551-8.563,1.521-16.81,3.8-23.47,9.853-.415.376-1,1.167-1.208,1.077-4.993-2.1-6.706-7.221-6.859-11.338-.127-3.412-6.121-8.485,1.246-11.1,1.941-.688,4.9.214,4.542-3.428.712-.219,1.426-.44,2.138-.658,3.88.427,4.063-4.524,3.905-4.848-4.768-9.889-1.186-20.386-2.422-30.48-.289-2.366-.391-4.437-3.008-5.307-.088-7.022-.27-14.045-.226-21.065.022-3.5-.515-6.223-4.869-6.072a145.422,145.422,0,0,0-3.565-24.67c-.97-4.342-2.789-4.085-5.8-3.054-5.253-.68-10.512-1.433-15.639.714l-4.126.024c-.382-2.083.924-5.436-1.788-5.916-7.453-1.315-1.538-4.874-1.586-7.4,3.348,1.213,7.153-.862,9.753-.148,12.621,3.465,24.872-3.1,29.369-16.8a2.185,2.185,0,0,1,1.6-.058c-.121,1.72-.5,3.5,1.084,4.838q-.01,6.194-.019,12.387a5.244,5.244,0,0,0,.024,6.335c0,1.4-.005,2.8-.007,4.192-1.373,4.218-1.7,8.414.406,12.53,1.106,16.543,1.417,33.167,4.78,49.491.452,2.194,1.128,4.342,1.7,6.512-3.666,3.02-1.65,7.357-.613,9.867,2.046,4.955,1.354,12.13,8.636,13.962" transform="translate(141.744 139.425)" fill="rgba(255,197,130,0.42)"/>
    <path id="Path_3502" data-name="Path 3502" d="M356.583,289.347q.227-2.434.455-4.867c13.5-.116,27.012-.153,40.513-.394,4.3-.076,7.124.659,6.592,5.949-.471,4.672-1.46,8.041-7.338,7.9-12.657-.309-25.324-.212-37.986-.28q-1.119-4.152-2.236-8.3" transform="translate(249.385 198.679)" fill="#edf6e5"/>
    <path id="Path_3503" data-name="Path 3503" d="M333.847,318.683c3.419-4.055,3.378-8.945,3.231-13.807-.685-22.529,3.072-44.772,5.331-67.181,0,22.661-.034,45.322.031,67.985.012,4.179-.6,8.436.924,12.518l.233.034c-1.614,1.322-1.106,3.1-1.037,4.791a41.154,41.154,0,0,1-.943,4.06c-.687,2.036-.977,4.649-4.15,4.179-2.845-.423-1.676-3.059-2.435-4.644-1.22-2.547.817-5.537-1.185-7.933" transform="translate(233.484 166.237)" fill="#adafce"/>
    <path id="Path_3504" data-name="Path 3504" d="M194.135,295.713c-.083-6.838-1.183-13.682.131-20.51q14.242.1,28.485.212a55.859,55.859,0,0,1,.034,16.827c-5.713.97-9.924-4.257-15.826-3.518-5.436.68-10.152,1.693-12.823,6.988" transform="translate(135.417 192.47)" fill="rgba(255,197,130,0.42)"/>
    <path id="Path_3505" data-name="Path 3505" d="M210.8,293.662a55.925,55.925,0,0,0-.036-16.829q.138-1.642.274-3.281c3.05-.326,6.109-.809,9.087.411.144,2.812.413,5.62.421,8.431.039,13.235,1.747,16.244,13.66,23.686-19.431,2.92-21.137,2.014-23.406-12.417" transform="translate(147.403 191.053)" fill="#adafce"/>
    <path id="Path_3506" data-name="Path 3506" d="M339.027,289.878c-.07-1.687-.576-3.468,1.037-4.791.313,1.738.488,3.448-1.037,4.791" transform="translate(237.017 199.383)" fill="#2a277f"/>
    <path id="Path_3507" data-name="Path 3507" d="M353.188,288.014a3.792,3.792,0,0,1-.236-.928c0-.063.357-.116.549-.173-.087.3-.172.6-.313,1.1" transform="translate(246.846 200.66)" fill="#2a277f"/>
    <path id="Path_3508" data-name="Path 3508" d="M380.05,153.1c-9.782,1.45-13.162-2.558-14.666-12.563-1.9-12.688-1.912-25.672-5.464-38.159-1.48-5.2.743-9.408,6.373-10.845,2.2-.561,3.485-1.572,3.909-3.742q1.912.961,3.818,1.925,22.411-3.355,44.833-6.706a1.5,1.5,0,0,0,2-1.506l-.041.054c9.059-.89,18.17,1.2,27.256-2.7,7.945-3.412,11.641-.1,13.162,8.652.741,4.262-1.331,9.1,2.507,12.756.678,9.766.938,19.568,3.122,29.18,1.839,8.092-1.2,12.937-9.457,12.946-21.482.022-42.031,7.382-63.5,7.486-4.622.022-9.234,2.1-13.852,3.225M444.4,110.043c7.314,1.506,9.4-4.809,9.459-9.362.071-5.53-3.385-10.575-10.587-10.492-5.847.066-10.828,4.8-10.035,10.859.765,5.827,4.136,9.727,11.163,8.995" transform="translate(251.408 54.225)" fill="#f7e8d2"/>
    <path id="Path_3509" data-name="Path 3509" d="M412.869,97.274q-22.422,3.352-44.836,6.707c5.469-7.377,14.525-8.82,21.915-12.932,20.085-11.175,40.537-21.7,60.817-32.531,1.764-.941,3.336-2.3,5.289-.5q1.394,1.968,2.8,3.931c2.874,5.215,1.584,8.155-4.09,10.834-12.1,5.713-23.79,12.309-35.583,18.652-1.806.97-4.556,1.309-4.354,4.388l.039-.054-1.992,1.5" transform="translate(257.393 39.959)" fill="#705225"/>
    <path id="Path_3510" data-name="Path 3510" d="M428,81.014c-.245,1.054,1.02,4.128-2.58,2.965-3.152-1.018-7.006-2.287-6.165-6.483.308-1.533-1.21-6.152,3.191-5.108,3.836.909,6.238,3.66,5.554,8.626" transform="translate(293.131 50.52)" fill="#df4988"/>
    <path id="Path_3511" data-name="Path 3511" d="M392.072,261.522c6.116-.133,12.232-.294,18.348-.387,4.328-.066,6.43,2.1,5.047,6.279-2.218,6.707-.59,13.632-1.654,20.374q-5.9.755-11.809,1.514c-3.839-1.009-8.04,3.025-11.678-.831.613-4.028-4.6-5.256-4.541-8.5.122-7.278-4.446-6.716-9.42-6.908-5.171-.2-10.706,1.657-16.961-2.01,6.779-2.126,12.346-1.38,17.741-1.159,6.947.282,11.894-2.124,14.926-8.376" transform="translate(251.359 182.63)" fill="rgba(241,156,17,0.46)"/>
    <path id="Path_3512" data-name="Path 3512" d="M392.145,277.442c3.637,3.856,7.838-.177,11.676.831,1.081,5.588-.661,8.021-6.9,7.792-13.357-.493-26.74-.3-40.112-.389q.041-4.165.083-8.33,2.134-.222,4.267-.445,15.5.273,30.988.542" transform="translate(249.541 193.657)" fill="#edf6e5"/>
    <path id="Path_3513" data-name="Path 3513" d="M392.875,289.923c-1.608-.156-3.784.241-4-2-.282-3.025,2.349-2.58,4.135-2.6s4.617-.69,4.517,2.109c-.078,2.231-2.622,2.486-4.656,2.5" transform="translate(271.958 199.484)" fill="#2a277f"/>
    <path id="Path_3514" data-name="Path 3514" d="M258.395,119.848c-3.643-.007-7.336.359-10.922-.107-5.968-.773-8.939,1.849-9.9,7.433q-.576-6.933-1.154-13.87c-5.7-3.734-11.955-1.315-17.942-1.385-1.971-.024-1.375,2.49-1.111,4.065a.6.6,0,0,0-.659.5l-.78-6.786c7.956-2.223,15.8-2.87,23.7.573,7.754,3.377,15.476-.076,23.164-.918,2.967-.323,2.289-3.472,2.3-5.6.061-9.279,0-18.557-.012-27.837,3.679,3.057,7.846,1.854,11.931,1.361q35.562-.01,71.122-.022c15.792.131,31.585.226,47.377.423,3.032.037,6.255-.783,8.99,1.363-40.392.09-80.785.372-121.176.1-7.642-.051-10.881,1.822-9.912,9.805.607,5,.25,10.147.087,15.22-.156,4.8,1.528,7.64,6.765,7.375a8.073,8.073,0,0,1-5.941,7.493c-5.129,1.11-10.6.625-15.935.809" transform="translate(151.015 53.095)" fill="#c4bfd4"/>
    <path id="Path_3515" data-name="Path 3515" d="M160.59,102.205a19.044,19.044,0,0,1-19.424-19.2c-.192-10.606,9.155-20.056,19.81-20.031a20.068,20.068,0,0,1,20.3,20.471c-.076,10.794-8.951,18.839-20.688,18.758M173.575,73.35c-2.947.491-5.878,1.193-8.845,1.421-3.361.257-6.758.032-10.135.126-2.243.061-4.413.048-5.117,3.118-2.09,9.131,3.511,15.048,12.806,15.61,4.522.275,4.44-2.165,5.3-4.289,2.022-5.013,1.988-10.891,5.994-15.986" transform="translate(98.726 44.045)" fill="rgba(209,193,150,0.19)"/>
    <path id="Path_3516" data-name="Path 3516" d="M176.882,82.165c-.537-11.67,6.092-18.805,17.866-19.232a19.448,19.448,0,0,1,19.981,18.579c.493,10.319-8.524,20.452-18.576,20.879-13.016.551-18.584-5.3-19.271-20.226m22.238,7.9c5.385-1.195,7.562-6.286,10.983-9.663,2.33-2.3.969-6.446-2.923-7.03-4.656-.7-9.637-1.212-14.069,1.208-4.777,2.61-9.714,7.17-9.924,11.527-.175,3.66,5.032,8.643,9.056,10.978,1.924,1.118,5.71-3.424,6.915-7.058Z" transform="translate(123.686 44.005)" fill="rgba(209,193,150,0.19)"/>
    <path id="Path_3517" data-name="Path 3517" d="M211.763,72.3c-.868-10.825,9.42-11.287,14.38-11.094,6.048.235,13.588-.685,19.319,4.746,6.983,6.614,6.8,14.708,6.629,23.049-.015.8-.758,1.574-.8,2.377-.466,9.756-5.633,13.58-15.1,12.077l-.393-.369c1.405-.913,2.8-1.844,4.22-2.733,9.3-5.824,11.782-15.859,6.339-25.62-5.317-9.535-15.738-13.075-25.271-8.257-3.214,1.623-5.992,4.1-8.969,6.189Z" transform="translate(148.066 42.788)" fill="rgba(209,193,150,0.19)"/>
    <path id="Path_3518" data-name="Path 3518" d="M214.372,90.375c-8.621-8.558-8.612-12.941.046-22.648l.352.364c-1.817,7.292-3.428,14.584.16,21.835Z" transform="translate(145.411 47.367)" fill="rgba(209,193,150,0.76)"/>
    <path id="Path_3519" data-name="Path 3519" d="M231.978,86.275c-4.74,8.93-9.491,4.422-14.241.012l.427-.54,13.422.16Z" transform="translate(152.28 59.969)" fill="rgba(209,193,150,0.76)"/>
    <path id="Path_3520" data-name="Path 3520" d="M221.968,89.754c-5.831.058-10.84-.867-10.23-8.519l.554-.445a36.06,36.06,0,0,0,10.1,8.424Z" transform="translate(148.049 56.503)" fill="rgba(209,193,150,0.76)"/>
    <path id="Path_3521" data-name="Path 3521" d="M328.266,216.9c-1.382-5.635-4.09-9.384-10.12-11.783-5.467-2.175-7.45-7.829-5.1-14.081,3.4-9.015,10.73-15.446,15.357-23.64q.688-.762,1.376-1.531c.107-.6.214-1.212.321-1.815,2.315-1.891,4.454-4.07,6.986-5.6,3.093-1.871,6.328-4.957,10.176-1.149.591,1.521.89,3.256,1.825,4.525,4.43,6.014,3.577,11.107-.418,17.492-8.354,13.354-9.506,9.318,5.04,16.693,1.99,1.009,4.257,1.4,5.351,3.643.241,3-3.839,3.839-3.453,6.908l.007-.007c-6.974,3.047-1.944,9.2-3.542,13.641-6.534-.93-11.729-5.066-17.633-7.51-5.141-2.128-5.837.313-6.177,4.214" transform="translate(218.257 108.743)" fill="rgba(156,140,34,0.68)"/>
    <path id="Path_3522" data-name="Path 3522" d="M336.718,165.109c-.69-5.287-6.121-8.05-7.051-13.208,1.5-.447,5.2.376,2.454-2.931-3.924-4.731-2.811-8.612,1.946-10.951,4.949-2.432,6.335.624,8.492,5.4,2.541,5.625,6.988-.1,8.053-2.34,1.919-4.026,4.158-4.765,7.868-3.793,12.069,2.151,12.069,2.151,11.94,17.886-5.03,1.531-7.233,4.964-6.837,10.142.77,4.072-4.418,5.822-3.846,9.821-3.732.71-7.355,3.946-11.257.459-2.153-5.523-4.126-11.25-11.874-10.409Z" transform="translate(230.561 95.745)" fill="#ea9da1"/>
    <path id="Path_3523" data-name="Path 3523" d="M330.779,206.068c-1.657,18.146-2.491,36.433-4.354,54.448-1.288,12.456-1.786,24.889-2.5,37.335-.2,3.472-1.237,5.365-4.942,5.051q-.227-1.644-.452-3.288c1.93-16.834,3.725-33.68,4.09-50.641l-.042.036c1.587-2.182,1.288-4.6.868-7.027q1.315-20.115,2.631-40.228c3.367-.517,4.843,1.018,4.7,4.315" transform="translate(222.774 141.033)" fill="#ffc582"/>
    <path id="Path_3524" data-name="Path 3524" d="M339.263,188.382c-.386-3.069,3.694-3.91,3.453-6.908,2.8.054,5.6.022,8.395.18,7.612.428,12.75,4.531,14.693,11.632,1.91,6.983-1.319,12.387-7.08,16.562-6.381,4.622-11.955,2.711-17.223-1.761a74.807,74.807,0,0,1-5.771-6.072c1.6-4.439-3.434-10.594,3.54-13.641-.01,2.8-.246,5.627.015,8.4.6,6.339,5.037,10.8,10.439,11.172,5.905.408,10.767-4.367,12-10.315a8.784,8.784,0,0,0-4.322-8.957c-2.993-1.5-4.2.924-5.054,3.735-.877,2.886-2.491,1.083-3.555-.126-2.552-2.9-5.489-4.7-9.53-3.905" transform="translate(234.605 126.919)" fill="#adafce"/>
    <path id="Path_3525" data-name="Path 3525" d="M339.845,158.684c-3.846-3.807-7.083-.721-10.176,1.15-2.532,1.531-4.672,3.71-6.986,5.6C324.868,156.288,328.5,154,341.6,153.5l-.109.073q-.051,2.546-.1,5.095l-.771.185Z" transform="translate(225.677 107.355)" fill="#d5dbed"/>
    <path id="Path_3526" data-name="Path 3526" d="M333.692,158.673q.051-2.547.1-5.1c7.747-.841,9.72,4.886,11.875,10.409-5.171.884-8.737-1.849-11.976-5.312" transform="translate(233.376 107.35)" fill="#fefdfd"/>
    <path id="Path_3527" data-name="Path 3527" d="M322.343,196.983c-1.778-1.06-1.611-2.279-.3-3.594q.148,1.795.3,3.594" transform="translate(224.524 135.252)" fill="#71b4e0"/>
    <path id="Path_3528" data-name="Path 3528" d="M377.206,181.634c1.074.224,2.318.3,1.7,1.976l-1.305-.76a3.937,3.937,0,0,0-.391-1.217" transform="translate(263.809 127.03)" fill="#c4bfd4"/>
    <path id="Path_3529" data-name="Path 3529" d="M212.136,162.79c7.124,2.484,14.621,6.179,17.521-5.331.007-.024,1.436.311,2.2.481,1.507,5.227-2.012,8.145-5.175,11.226-6.26,1.082-13.036,3.343-14.543-6.376" transform="translate(148.363 110.123)" fill="#d5dbed"/>
    <path id="Path_3530" data-name="Path 3530" d="M236.1,98q.576,6.936,1.154,13.87l.066,28.261q-.678,2.442-1.358,4.884c-7.032,1.018-12.319-4.646-19-4.949q-.285-19.444-.571-38.887a.591.591,0,0,1,.659-.495c5.982-3.5,12.54-2.933,19.053-2.685" transform="translate(151.337 68.402)" fill="#705225"/>
    <path id="Path_3531" data-name="Path 3531" d="M227.907,127.592q.678-2.439,1.358-4.882c2.994,2.009.612,3.886-.139,5.805a3.254,3.254,0,0,1-1.218-.923" transform="translate(159.393 85.82)" fill="#c4bfd4"/>
    <path id="Path_3532" data-name="Path 3532" d="M132.233,166.567c.15,2.942-1.5,6.13-4.021,4.459-5-3.319-13.906,4.889-15.806-5.469-.44-2.4,1.849-3.7,4.532-3.7,14.927.044,15.342.143,15.294,4.706" transform="translate(78.576 113.202)" fill="#ea9da1"/>
    <path id="Path_3533" data-name="Path 3533" d="M131.122,170.905c-2.631-.559-4.974-1.383-4.957-4.633.012-2.61,1.375-4.4,4-4.389,2.549.014,5.368.809,5.565,3.873.18,2.8-2.036,4.332-4.6,5.149" transform="translate(88.237 113.217)" fill="#ea9da1"/>
    <path id="Path_3534" data-name="Path 3534" d="M418.592,189.48c13.316.6,16.761,4.167,17.12,17.8.126,4.746.151,9.5.328,14.244.078,2.1-.534,4.785,2.987,4.828.277,17.449-.6,34.915,5.37,51.933,1.737,4.952-3.681,6.622-8.208,6.6q-29.136-.135-58.268-.382c-.515-2.173-1.383-4.332-1.489-6.524-.778-16.149-2.918-32.139-5.047-48.15-1.752-13.182-2.644-26.478-3.917-39.725l10.39-.811a23.708,23.708,0,0,0,10.176.2q1.746.107,3.489.211c2.376.7,4.746,1.956,7.127,1.973,6.624.048,13.784,4.262,19.718-2.121Zm-12.028,43.854c.7-.16,5.3,1.674,4.8-3.2-.416-4.06-3.666-6.454-8.22-6.522-3.907-.058-7.362,2.109-6.978,5.268.432,3.574,4.308,5.431,10.4,4.454" transform="translate(256.998 132.389)" fill="rgba(209,193,150,0.76)"/>
    <path id="Path_3535" data-name="Path 3535" d="M375.679,190.074c1.273,13.245,2.165,26.541,3.917,39.723,2.129,16.013,4.269,32,5.047,48.15.105,2.194.974,4.35,1.489,6.524l-.017.01c-4.325.187-8.708-.794-12.966.661-5.856,3.285-11.561,2.532-17.176-.644-.082-.7-.163-1.4-.246-2.09,2.57-10.473,1.171-21.084,1.084-31.651l.681-.292a73.271,73.271,0,0,0,4.678-21.937c.42-10.317.557-20.69,1.839-30.91.748-5.968,4.561-10,11.67-7.544" transform="translate(248.787 132.422)" fill="#bfac8f"/>
    <path id="Path_3536" data-name="Path 3536" d="M391.636,288.465q-15.493-.27-30.981-.537c-4.906-8.14-2.51-17.055-2.705-25.7,11.773-2.009,23.618-.615,35.432-.715-3.032,6.254-7.98,8.658-14.927,8.376-5.4-.219-10.961-.967-17.74,1.159,6.255,3.667,11.79,1.812,16.96,2.012,4.976.192,9.544-.372,9.421,6.906-.054,3.239,5.153,4.468,4.541,8.5" transform="translate(250.05 182.634)" fill="#feca40"/>
    <path id="Path_3537" data-name="Path 3537" d="M358.686,263.351c.2,8.641-2.2,17.555,2.705,25.695q-2.141.217-4.272.442l-.564-.034q-.041-14.305-.078-28.611a14.267,14.267,0,0,0,.8-1.3q.706,1.909,1.411,3.81" transform="translate(249.311 181.517)" fill="#ea9da1"/>
    <path id="Path_3538" data-name="Path 3538" d="M365.979,246.05c4.259-1.453,8.641-.474,12.965-.659-4.08,4.959-8.453,4.158-12.965.659" transform="translate(255.957 171.514)" fill="rgba(209,193,150,0.76)"/>
    <path id="Path_3539" data-name="Path 3539" d="M439.617,176.075c-2.758.238-4.706-.751-4.943-3.406-.3-3.411,2.43-3.095,4.605-3.074,2.8.025,6.432.037,6.507,3.543.09,4.2-4.821.5-6.169,2.937" transform="translate(303.984 118.6)" fill="#feca40"/>
    <path id="Path_3540" data-name="Path 3540" d="M449.446,169.536c1.645.107,3.851-.139,3.793,2.177-.058,2.3-1.23,4.362-4.029,4.52-2.364.133-3.728-.965-3.718-3.44.01-2.648,1.82-3.156,3.954-3.258" transform="translate(311.566 118.569)" fill="#feca40"/>
    <path id="Path_3541" data-name="Path 3541" d="M243.11,199.463c-4.5,13.7-16.749,20.263-29.37,16.8-2.6-.714-6.4,1.361-9.751.148a1.5,1.5,0,0,1-.027-.868c.642-3.2,4.836-5.147,3.246-9.141q.227-.966.455-1.937c5.858,5.078,11.88,2.335,17.809.265,5.8-2.026,11.306-5.011,17.638-5.265" transform="translate(142.609 139.5)" fill="rgba(156,140,34,0.68)"/>
    <path id="Path_3542" data-name="Path 3542" d="M229.055,204.267c-1.584-1.339-1.2-3.118-1.084-4.838l1.813.061-.729,4.777" transform="translate(159.348 139.476)" fill="rgba(255,197,130,0.42)"/>
    <path id="Path_3543" data-name="Path 3543" d="M181.744,270.195q-15.083-.161-30.161-.323c-1.229-.467-1.339-.947-.008-1.438l30.482-.26q-.158,1.009-.313,2.021" transform="translate(105.34 187.554)" fill="#2e3169"/>
    <path id="Path_3544" data-name="Path 3544" d="M147.209,291.406c-.1,2.012-.314,4.067-3.069,3.744-2.265-.267-1.987-2.27-2.048-3.827-.066-1.659.066-3.547,2.187-3.774,2.826-.3,2.767,1.944,2.93,3.858" transform="translate(99.367 201.085)" fill="#d1c196"/>
    <path id="Path_3545" data-name="Path 3545" d="M408.507,190.827c-5.934,6.383-13.094,2.168-19.718,2.121-2.381-.017-4.753-1.28-7.127-1.973q-.048-1.749-.1-3.5,5.97.038,11.938.075a9.264,9.264,0,0,0,1.654,0l1.776-.039a11.527,11.527,0,0,0,1.589.009q1,.849,2.005,1.7c-.33,3.254,1.1,2.619,2.846,1.281l5.132.331" transform="translate(266.859 131.116)" fill="#bfac8f"/>
    <path id="Path_3546" data-name="Path 3546" d="M394.626,191.433l-11.938-.075c.855-2.7-5.224-4.692-1.511-6.808,2.292-1.307,5.282-3.485,8.925-2.265,4.257,1.427,4.5,1.659,1.329,5.139-1.064,1.167-1.062,1.167,3.195,4.009" transform="translate(265.738 127.235)" fill="#c4bfd4"/>
    <path id="Path_3547" data-name="Path 3547" d="M355.844,237.065c.425-9.518-1.74-19.155,1.3-28.556q.257,14.277.513,28.551l-.68.291a2.227,2.227,0,0,0-1.133-.285" transform="translate(248.621 145.826)" fill="#ffc582"/>
    <path id="Path_3548" data-name="Path 3548" d="M383.759,191.011a23.743,23.743,0,0,1-10.178-.2c3.528-6.911,6.837-2.5,10.178.2" transform="translate(261.273 130.869)" fill="#c4bfd4"/>
    <path id="Path_3549" data-name="Path 3549" d="M391.341,187.84l-1.776.041c.566-1.149,1.157-1.184,1.776-.041" transform="translate(272.452 130.784)" fill="#c4bfd4"/>
    <path id="Path_3550" data-name="Path 3550" d="M323,77.32l-71.122.022c2.388-2.233,5.353-1.334,8.075-1.346q27.479-.115,54.958-.012c2.728.01,5.686-.85,8.089,1.336" transform="translate(176.157 53.031)" fill="#1c2056"/>
    <path id="Path_3551" data-name="Path 3551" d="M211.9,209.792c.046,2.522-5.868,6.08,1.586,7.4,2.712.479,1.405,3.832,1.786,5.916-6.745-2.425-13.76-.821-20.632-1.376q-1.017-2.651-2.036-5.3c2.031-1.086,2.636-4.34,6.026-3.451,5.144,1.351,9.058-1.93,13.243-4.051a1.526,1.526,0,0,0,.027.868" transform="translate(134.7 146.116)" fill="#ffc582"/>
    <path id="Path_3552" data-name="Path 3552" d="M212.66,212.717c-4.186,2.121-8.1,5.4-13.243,4.053-3.39-.891-4,2.366-6.026,3.451-3.6-1.526-1-4.187-1.169-6.339,7.617-.042,15.728,1.169,18.336-9.236.428-1.71,3.465-.97,5.35-1.072,1.591,4-2.605,5.939-3.247,9.143" transform="translate(133.911 142.323)" fill="#adafce"/>
    <path id="Path_3553" data-name="Path 3553" d="M349.643,157.792c-.394-5.178,1.806-8.609,6.837-10.142-.353,4.677,2.158,11.275-6.837,10.142" transform="translate(244.501 103.263)" fill="#c4bfd4"/>
    <path id="Path_3554" data-name="Path 3554" d="M395.591,189.781c-1.745,1.337-3.174,1.973-2.846-1.281q1.427.64,2.846,1.281" transform="translate(274.643 131.832)" fill="#adafce"/>
    <path id="Path_3555" data-name="Path 3555" d="M372.606,277.733c-36.407.049-72.817.255-109.221-.017-5.547-.041-10.788,2.269-16.639.619-4.748-1.337-6.434-3.2-6.554-7.958-.3-11.79,1.208-23.626-.872-35.381-.5-2.829.911-3.926,3.871-3.944,13.163-.088,26.325-.523,39.487-.571q40.642-.143,81.283.024c2.965.01,6.289-1.106,8.757,1.713.474,2.15,1.73,4.474,1.3,6.427-2.868,12.971-.534,26.084-1.41,39.089m-84.884-34.907c-4.01,1.241-8.833,1.48-8.283,7.521.449,4.915-2.469,12,1.431,14.249,4.775,2.755,8.352-4,12.54-6.59,3.941-2.442,5.185-4.974,4.2-8.777-1.283-4.935-5.933-5.321-9.885-6.4m31.425,22.9c-.525-7.073-.705-13.417-5.392-18.506-3.3-3.579-6.345-4.976-8.862.71-1.9,4.286-3.834,8.556-5.681,12.866-1.448,3.382.576,5.876,3.23,4.118,5.861-3.885,10.963-2.175,16.7.812m3.234-20.678c3.069,5.6,5.7,10.733,6.787,16.54.277,1.475.889,3.525,2.969,3.509.843-.007,2.423-1.186,2.4-1.779-.27-6.605,5.4-11.85,4.274-21.3-5.207,14.178-10.575-.1-16.43,3.03" transform="translate(167.306 161.062)" fill="#d6e5cf"/>
    <path id="Path_3556" data-name="Path 3556" d="M338.054,183.036c7.326.867,10.725,6.714,10.018,17.641-1.288,19.855-10.956,34.378-28.672,43.254-16.654,8.344-41.079,4.255-55.084-9.9-18.955-19.164-17.31-41.252-6.638-61.582,4.067-7.746,11.561-14.849,21.9-16.868,5.039-.984,9.161-4.486,14.883-5.069,9.814-1,17.881,3.582,26.66,5.825,3.91,1,4.2,4.731,2.94,7.637-1.6,3.7-3.973.809-6.213-.022-19.966-7.406-44.668-4.036-55.446,18.457-4.481,9.352-3.824,19.429-.749,28.546,7.163,21.246,23.244,30.49,45.676,27.894,13.457-1.557,30.585-20.415,30.708-33.858.068-7.333.049-14.667.07-22Z" transform="translate(174.709 105.165)" fill="#d6e5cf"/>
    <path id="Path_3557" data-name="Path 3557" d="M327.666,184.268c-2.782.036-5.142.08-7.474,2.637-6.735,7.387-14.45,13.846-19.991,22.357-2.755,4.228-14.752,5.29-17.407.945-4.1-6.7-10.507-10.844-15.332-16.6-1.978-2.36-4.226-5.628-1.4-8.22,2.986-2.734,6.159-.965,8.646,1.941,2.92,3.409,5.961,6.724,9.09,9.945,6.891,7.091,10.038,7.64,15.58-.571,7.222-10.7,16.236-19.49,25.244-28.437.591-.588,1.458-1.346,1.456-2.022-.026-9.754,10.689-9.607,14.616-15.8a3.875,3.875,0,0,1,6.527-.209,4.793,4.793,0,0,1-1.037,6.8c-6.045,4.656-8.862,12.261-15.357,16.543-3.92,2.585-3.29,6.816-3.214,10.749l.049-.049" transform="translate(185.146 103.884)" fill="#d6e5cf"/>
    <path id="Path_3558" data-name="Path 3558" d="M242.123,105.184c5.331-.184,10.806.3,15.935-.809A8.073,8.073,0,0,0,264,96.883c10.866,3.317,15.335,9.562,15.116,21.125-.117,6.128-8.456,15.989-15.794,16.926-7.081.9-14.2-.8-18.389-7.457-3.45-5.475-8.33-10.937-4.085-18.307a19.43,19.43,0,0,0,1.276-3.985" transform="translate(167.287 67.758)" fill="#d5dbed"/>
    <path id="Path_3559" data-name="Path 3559" d="M288.007,89.41q-7.986,0-15.971,0c-2.218,0-4.058-1.032-3.973-3.195.068-1.721,1.9-2.532,3.8-2.529q16.811.025,33.622-.015c1.88-.007,3.773.687,3.983,2.342.294,2.321-2.62,2.9-3.846,2.981-5.849.389-11.738.175-17.611.175,0,.08,0,.158,0,.238" transform="translate(187.475 58.52)" fill="#705225"/>
    <path id="Path_3560" data-name="Path 3560" d="M317.741,278.29c.879-13.007-1.458-26.118,1.41-39.091.432-1.951-.824-4.276-1.3-6.427,2.632.285,3.249-2.728,5.373-3.273-.365,16.961-2.162,33.807-4.092,50.641l-1.394-1.851" transform="translate(222.169 160.506)" fill="#c4bfd4"/>
    <path id="Path_3561" data-name="Path 3561" d="M322.011,225.385c.42,2.43.719,4.845-.867,7.027-.578-2.449-1.193-4.9.867-7.027" transform="translate(224.211 157.629)" fill="#c4bfd4"/>
    <path id="Path_3562" data-name="Path 3562" d="M317.89,268.492l.323.622-.416.595a.864.864,0,0,1,.094-1.217" transform="translate(222.114 187.777)" fill="#c4bfd4"/>
    <path id="Path_3563" data-name="Path 3563" d="M323.06,161.592q-.688.767-1.376,1.531.688-.767,1.376-1.531" transform="translate(224.978 113.014)" fill="#d5dbed"/>
    <path id="Path_3564" data-name="Path 3564" d="M341.053,246.278c-3.479-7.747-1.008-14.938-.9-22.066.07-4.605,9.753-11.639,14.1-10.665,3.484.782,2.53,3.122,1.633,5.215-4.039,9.426-7.856,18.984-14.836,27.516" transform="translate(237.229 149.285)" fill="#ffc582"/>
    <path id="Path_3565" data-name="Path 3565" d="M357.127,225.313a2.227,2.227,0,0,1,1.133.285c.087,10.568,1.484,21.179-1.086,31.653-1.123-1.305-4.639-1.314-3.164-3.966,4.984-8.959,1.614-18.714,3.117-27.972" transform="translate(247.337 157.578)" fill="#ffc582"/>
    <path id="Path_3566" data-name="Path 3566" d="M357.708,260.306q.036,14.308.077,28.611c-3.169-9.528-4.882-19.06-.077-28.611" transform="translate(248.082 182.052)" fill="#ffc582"/>
    <path id="Path_3567" data-name="Path 3567" d="M226.963,249.117c2.617.87,2.719,2.942,3.008,5.309,1.235,10.093-2.347,20.59,2.422,30.478.158.325-.025,5.277-3.905,4.848-2.077-12.749-4.532-25.462-3.377-38.494l1.852-2.141" transform="translate(157.23 174.226)" fill="#ffc582"/>
    <path id="Path_3568" data-name="Path 3568" d="M228.243,260.286l-1.852,2.141c-1.8-9.676-4.038-19.307-3.241-29.275,4.352-.155,4.889,2.568,4.867,6.068-.044,7.02.138,14.044.226,21.065" transform="translate(155.95 163.057)" fill="#ffc582"/>
    <path id="Path_3569" data-name="Path 3569" d="M222.887,273.428q-.138,1.642-.274,3.281-14.242-.1-28.485-.212-.153-1.573-.309-3.146l29.068.077" transform="translate(135.552 191.176)" fill="#ffc582"/>
    <path id="Path_3570" data-name="Path 3570" d="M208.369,217.837c5.127-2.146,10.387-1.4,15.639-.714-5.154,1.587-10.4,1.021-15.639.714" transform="translate(145.728 151.359)" fill="#ea9da1"/>
    <path id="Path_3571" data-name="Path 3571" d="M241.5,279.917c-7.282-1.832-6.59-9.007-8.636-13.962-1.037-2.51-3.052-6.847.613-9.867Q237.486,268,241.5,279.917" transform="translate(161.813 179.102)" fill="#ffc582"/>
    <path id="Path_3572" data-name="Path 3572" d="M229.414,228.289c-2.109-4.116-1.779-8.312-.406-12.53q.2,6.276.406,12.53" transform="translate(159.391 150.897)" fill="rgba(255,197,130,0.42)"/>
    <path id="Path_3573" data-name="Path 3573" d="M229,215.9a5.249,5.249,0,0,1-.024-6.335A8.283,8.283,0,0,1,229,215.9" transform="translate(159.405 146.565)" fill="rgba(255,197,130,0.42)"/>
    <path id="Path_3574" data-name="Path 3574" d="M179.72,287.267c.936,7.122-2.413,8.454-8.516,6.758a37.12,37.12,0,0,0-8.334-.974c-8.284-.342-10.405-2.979-8.429-10.779.2-.8.335-2.078.839-2.279,7.024-2.789,14.151-.054,21.229-.025,4.531.019,2.755,4.61,3.21,7.3" transform="translate(107.531 194.945)" fill="#d5dbed"/>
    <path id="Path_3575" data-name="Path 3575" d="M414.08,104.835c-7.027.732-10.4-3.168-11.163-8.995-.794-6.055,4.187-10.793,10.035-10.859,7.2-.083,10.659,4.962,10.587,10.492-.058,4.553-2.145,10.868-9.459,9.362" transform="translate(281.732 59.433)" fill="#ea9da1"/>
    <path id="Path_3576" data-name="Path 3576" d="M394.417,81.374l1.992-1.5a1.493,1.493,0,0,1-1.992,1.5" transform="translate(275.846 55.859)" fill="#922549"/>
    <path id="Path_3577" data-name="Path 3577" d="M235.95,98.778c-6.514-.248-13.072-.814-19.053,2.685-.263-1.58-.86-4.094,1.111-4.072,5.987.071,12.241-2.347,17.942,1.387" transform="translate(151.487 67.62)" fill="rgba(209,193,150,0.76)"/>
    <path id="Path_3578" data-name="Path 3578" d="M170.333,69.081c-4.005,5.1-3.971,10.971-5.994,15.984-.856,2.124-.775,4.565-5.3,4.291-9.3-.564-14.9-6.481-12.806-15.612.7-3.071,2.874-3.057,5.117-3.118,3.377-.093,6.772.131,10.135-.126,2.967-.228,5.9-.928,8.845-1.419m-12.706,4.76c-2.678,1.161-7.523-2.394-7.77,3.4-.178,4.17,3.448,3.479,6.138,3.567,3.4.112,7.491.336,7.8-4.119.34-4.937-4.17-1.584-6.165-2.852" transform="translate(101.968 48.314)" fill="rgba(209,193,150,0.76)"/>
    <path id="Path_3579" data-name="Path 3579" d="M196.553,85.967c-1.207,3.633-4.991,8.176-6.915,7.059-4.024-2.335-9.233-7.319-9.056-10.98.211-4.357,5.146-8.915,9.924-11.525,4.432-2.422,9.413-1.912,14.069-1.21,3.89.586,5.253,4.733,2.923,7.03-3.423,3.377-5.6,8.468-10.983,9.663-.445-1.89.78-3.1,1.737-4.468,2.309-3.312,2.352-6.6-1.733-8.2-6.15-2.417-8.182,3.511-11,6.7-3.069,3.477,1.059,5.277,3.259,7.037,2.816,2.253,5-1.9,7.775-1.1" transform="translate(126.291 48.068)" fill="#d1c196"/>
    <path id="Path_3580" data-name="Path 3580" d="M223.027,101.628a36.026,36.026,0,0,1-10.1-8.422c-3.587-7.253-1.975-14.543-.158-21.835,2.977-2.089,5.758-4.568,8.969-6.191,9.534-4.818,19.954-1.276,25.271,8.257,5.443,9.763,2.957,19.8-6.339,25.62-1.421.889-2.814,1.82-4.22,2.733l-13.422-.161m1.822-23.207c1.125-.071,2.863.286,3.264-.289,1.555-2.224,4.58,3.642,5.169-.986.313-2.459.506-5.594-2.257-6.745-3.63-1.511-2.459,2.8-3.988,4.017a27.269,27.269,0,0,0-2.906,3.074c-5.45-.078-4.486,4.022-5.219,7.423-.748,3.467-.139,5.3,3.553,5.569,4.192,4.184,9.275,3.812,13.972,1.781,4.474-1.936,3.744-7.176,4.83-11.014.758-2.68-1.373-4.726-4.49-4.57-1.249.063-1.5.863-1.23,2.311,1.981,10.587-.916,13.022-12.171,10.441-3.431-4.194-3.417-7.929,1.472-11.014m6.048,3.834-.393-.549c-.165.155-.445.3-.461.466s.229.364.362.547l.491-.464" transform="translate(147.417 44.087)" fill="#d1c196"/>
    <path id="Path_3581" data-name="Path 3581" d="M337.734,185.617c4.041-.8,6.978,1.009,9.53,3.905,1.064,1.208,2.678,3.011,3.555.126.853-2.811,2.061-5.237,5.054-3.735a8.784,8.784,0,0,1,4.322,8.957c-1.232,5.948-6.094,10.723-12,10.315-5.4-.372-9.838-4.833-10.439-11.172-.262-2.777-.026-5.6-.015-8.4l-.007.007" transform="translate(236.133 129.684)" fill="#ea9da1"/>
    <path id="Path_3582" data-name="Path 3582" d="M394.767,219.212c-6.094.977-9.97-.88-10.4-4.454-.384-3.159,3.071-5.326,6.978-5.268,4.554.068,7.8,2.462,8.22,6.522.5,4.874-4.1,3.04-4.8,3.2" transform="translate(268.795 146.511)" fill="#fff"/>
    <path id="Path_3583" data-name="Path 3583" d="M271.43,237.668c3.953,1.082,8.6,1.468,9.885,6.4.987,3.8-.257,6.335-4.2,8.777-4.187,2.595-7.764,9.345-12.54,6.59-3.9-2.248-.982-9.335-1.431-14.249-.551-6.041,4.274-6.281,8.283-7.521" transform="translate(183.598 166.219)" fill="#fefdfd"/>
    <path id="Path_3584" data-name="Path 3584" d="M294.657,260.044c-5.744-2.989-10.845-4.7-16.707-.812-2.654,1.759-4.677-.736-3.229-4.119,1.846-4.308,3.783-8.578,5.681-12.866,2.518-5.686,5.565-4.288,8.862-.709,4.687,5.09,4.865,11.433,5.392,18.506" transform="translate(191.796 166.74)" fill="#fefdfd"/>
    <path id="Path_3585" data-name="Path 3585" d="M288.157,240.221c5.854-3.127,11.223,11.148,16.43-3.03,1.128,9.45-4.544,14.694-4.274,21.3.024.593-1.557,1.772-2.4,1.779-2.08.015-2.692-2.034-2.969-3.509-1.086-5.807-3.718-10.935-6.787-16.54" transform="translate(201.53 165.886)" fill="#fefdfd"/>
    <path id="Path_3586" data-name="Path 3586" d="M155.959,71.9c2,1.268,6.505-2.085,6.165,2.852-.306,4.456-4.4,4.231-7.8,4.119-2.69-.088-6.317.6-6.138-3.567.246-5.8,5.091-2.243,7.77-3.4" transform="translate(103.636 50.257)" fill="#705225"/>
    <path id="Path_3587" data-name="Path 3587" d="M194.97,84.3c-2.777-.8-4.959,3.356-7.775,1.1-2.2-1.761-6.328-3.56-3.259-7.037,2.818-3.188,4.85-9.115,11-6.7,4.085,1.6,4.043,4.891,1.733,8.2-.957,1.371-2.182,2.578-1.737,4.468l.037-.037" transform="translate(127.874 49.73)" fill="#705225"/>
    <path id="Path_3588" data-name="Path 3588" d="M218.574,83.816c11.248,2.588,14.147.153,12.166-10.434-.272-1.448-.02-2.248,1.23-2.311,3.115-.156,5.248,1.89,4.488,4.57-1.084,3.837-.353,9.078-4.83,11.014-4.7,2.031-9.78,2.4-13.971-1.781q.444-.54.916-1.057" transform="translate(152.225 49.699)" fill="#705225"/>
    <path id="Path_3589" data-name="Path 3589" d="M218.634,74.58a29.082,29.082,0,0,1,2.913-3.061c1.529-1.217.359-5.528,3.987-4.017,2.765,1.15,2.571,4.284,2.257,6.745-.59,4.627-3.613-1.241-5.168.986-.4.574-2.14.218-3.266.285q-.382-.454-.722-.938" transform="translate(152.907 46.988)" fill="#705225"/>
    <path id="Path_3590" data-name="Path 3590" d="M219.236,84.539c-3.693-.274-4.3-2.1-3.553-5.569.732-3.4-.231-7.5,5.215-7.43.223.316.464.629.719.933-4.889,3.086-4.9,6.821-1.468,11.012-.311.342-.617.693-.913,1.054" transform="translate(150.647 50.033)" fill="#705225"/>
    <path id="Path_3591" data-name="Path 3591" d="M222.97,74.572l-.491.464c-.133-.184-.379-.377-.362-.547s.3-.311.461-.466l.393.549" transform="translate(155.343 51.77)" fill="#71b4e0"/>
  </g>
</svg>
