<svg xmlns="http://www.w3.org/2000/svg" xmlns:xlink="http://www.w3.org/1999/xlink" width="51.829" height="38.499" viewBox="0 0 51.829 38.499">
  <defs>
    <clipPath id="clip-path">
      <rect id="Rectangle_1707" data-name="Rectangle 1707" width="51.829" height="38.499" fill="none"/>
    </clipPath>
  </defs>
  <g id="Group_603" data-name="Group 603" transform="translate(0 0)">
    <g id="Group_602" data-name="Group 602" transform="translate(0 0)" clip-path="url(#clip-path)">
      <path id="Path_651" data-name="Path 651" d="M25.9,16.518c-5.813,0-11.626.012-17.439,0A8.125,8.125,0,0,1,0,8.243,8.2,8.2,0,0,1,8.542.012q17.334-.023,34.668,0A8.3,8.3,0,0,1,51.829,8.22c.044,4.721-3.685,8.286-8.7,8.3q-8.614.017-17.229,0M16,4.843c-.084,2.1-2.541,1.623-2.216,2.965.2.828.261,2.063.887,2.6s1.8.031,2.68.015c1.336-.025.524-2.128,1.513-2.9C18.038,6.75,16.853,6.462,16,4.843m19.227.362c-.208,1.675-2.286,1.278-2.367,2.419a5.422,5.422,0,0,0,.819,2.625c.549.919,1.877.11,2.807.159,1.262.067.435-2.135,1.5-2.86C37.239,6.689,35.9,6.6,35.23,5.205M7.714,10.746C9.1,10.054,8.2,8.285,9.35,7.658c-.91-.72-1.795-1.958-2.736-2C5.787,5.614,4.9,6.912,4.036,7.619c.646.771.532,1.858.929,2.623.552,1.065,1.934-.875,2.749.5M44.647,5.27c-.094,1.664-2.534,1.208-2.237,2.512.184.81.244,2.052.87,2.59.713.611,1.916.042,2.873.067,1.22.032.244-2.134,1.4-2.772l-2.909-2.4M25.765,4.9c-.476,1.741-2.337,1.7-2.4,2.7a5.271,5.271,0,0,0,.911,2.763c.425.622,1.743.052,2.6.048,1.292-.006.5-2.1,1.494-2.849-.7-.893-2.024-1-2.6-2.665" transform="translate(0 0)" fill="#fff"/>
      <path id="Path_652" data-name="Path 652" d="M58.435,60.476a11.023,11.023,0,0,1-.02,1.9c-.173.97.538,2.591-.748,2.749-1.261.155-2.993.911-4.027-.971-.406-.74-1.434-.36-2.152-.2-1.91.416-3.788.977-5.7,1.384a4.285,4.285,0,0,1-5.151-2.763c-.487-1.2-2.1-2.285-.36-3.776.436-.372-.291-.405-.48-.6-1.082-1.125-.894-2.154.6-2.709a18.544,18.544,0,0,1,3.44-.9c1.483-.243,1.906-.806,1.162-2.249a15.035,15.035,0,0,1-1.183-3.368,1.62,1.62,0,0,1,1.008-2.077c1.1-.33,1.132.686,1.388,1.394,1.237,3.421,3.838,5.644,6.669,7.663.95.678,1.593-.364,2.441-.438,2.841-.25,3.015-.2,3.1,2.632.022.776,0,1.553,0,2.33h.016" transform="translate(-22.514 -26.96)" fill="#fff"/>
      <path id="Path_653" data-name="Path 653" d="M34.668,11.415c.85,1.619,2.035,1.906,2.864,2.679-.989.774-.177,2.877-1.513,2.9-.875.016-2.053.525-2.68-.014s-.687-1.773-.886-2.6c-.325-1.342,2.133-.87,2.216-2.965" transform="translate(-18.666 -6.572)" fill="#edeceb"/>
      <path id="Path_654" data-name="Path 654" d="M79.811,12.267c.671,1.4,2.01,1.484,2.758,2.343-1.064.725-.237,2.927-1.5,2.86-.929-.05-2.257.76-2.806-.16a5.422,5.422,0,0,1-.819-2.625c.081-1.141,2.159-.744,2.367-2.419" transform="translate(-44.582 -7.062)" fill="#ecebeb"/>
      <path id="Path_655" data-name="Path 655" d="M13.189,18.416c-.815-1.379-2.2.561-2.749-.5-.4-.766-.283-1.852-.929-2.624.862-.707,1.752-2,2.578-1.965.942.045,1.827,1.284,2.736,2-1.147.627-.253,2.4-1.636,3.088" transform="translate(-5.475 -7.67)" fill="#e8e6e6"/>
      <path id="Path_656" data-name="Path 656" d="M102.153,12.42l2.909,2.4c-1.159.638-.183,2.8-1.4,2.772-.957-.025-2.16.544-2.873-.067-.626-.537-.687-1.78-.87-2.59-.3-1.3,2.143-.848,2.237-2.512" transform="translate(-57.507 -7.15)" fill="#e8e7e6"/>
      <path id="Path_657" data-name="Path 657" d="M57.46,11.557c.578,1.669,1.9,1.771,2.6,2.665-1,.75-.2,2.843-1.494,2.849-.855,0-2.173.574-2.6-.048a5.271,5.271,0,0,1-.911-2.763c.064-1.005,1.925-.961,2.4-2.7" transform="translate(-31.695 -6.653)" fill="#f1f2f1"/>
    </g>
  </g>
</svg>
