<svg id="Group_601" data-name="Group 601" xmlns="http://www.w3.org/2000/svg" xmlns:xlink="http://www.w3.org/1999/xlink" width="45.885" height="38.969" viewBox="0 0 45.885 38.969">
  <defs>
    <clipPath id="clip-path">
      <rect id="Rectangle_1706" data-name="Rectangle 1706" width="45.885" height="38.969" fill="none"/>
    </clipPath>
  </defs>
  <g id="Group_600" data-name="Group 600" clip-path="url(#clip-path)">
    <path id="Path_646" data-name="Path 646" d="M19.294.008c4.625,0,9.251-.023,13.876.008,3.348.023,5.379,2.029,5.415,5.407.051,4.8.025,9.593.01,14.39-.013,3.973-1.943,5.981-5.917,6.014-6.033.05-12.067.075-18.1-.026a4.766,4.766,0,0,0-4.034,1.686C9.166,29.045,7.6,30.434,6.1,31.884c-.273.264-.537.692-1,.468s-.31-.7-.265-1.073a29.492,29.492,0,0,1,.588-3.994c.3-1.123-.119-1.387-1.077-1.618-2.965-.716-4.3-2.409-4.318-5.433C0,15.3-.012,10.37.026,5.439.052,2.062,2.073.039,5.418.016,10.043-.015,14.668.008,19.294.008M3.337,11.8c1.147,1.4,2.386,2.387,1.727,4.242-.256.721.549.726,1.066.36a2.319,2.319,0,0,1,2.941-.012c.5.356,1.233.466,1.024-.379-.432-1.754.517-2.864,1.823-4.272a4.3,4.3,0,0,1-4.4-2.923c-.589,2.213-2.174,2.77-4.181,2.984m13.546,3.14c-.363,1.508-.118,2.272,1.475,1.2a1.884,1.884,0,0,1,2.236.182c.924.554,1.494.411,1.173-.749-.433-1.558,1.179-2.293,1.283-3.305.151-1.48-2.386-.181-2.757-1.769a3.5,3.5,0,0,0-.33-.731c-.455-.909-.949-.852-1.334.018-.4.892-.748,1.632-1.953,1.675-1.636.058-1.621.8-.464,1.725a1.665,1.665,0,0,1,.672,1.754m18.58-3.2c-2.041-.129-3.482-.519-4.025-2.266-.151-.487-.714-.6-.839-.058-.45,1.962-2.237,1.96-3.848,2.541,1.372,1.236,1.587,2.592,1.911,4.132.29,1.381,2.553-1.38,3.782.3a.419.419,0,0,0,.163.117c.731.335,1.123,0,.9-.692-.55-1.676.5-2.637,1.96-4.073" transform="translate(0 0)" fill="#fff"/>
    <path id="Path_647" data-name="Path 647" d="M85.8,69.374c3.082,0,6.164.021,9.246-.005a6.722,6.722,0,0,0,6.992-6.966c.065-4.185.081-8.374-.011-12.558-.037-1.666.584-1.8,1.909-1.344a4.986,4.986,0,0,1,3.6,4.816c.063,5.266.073,10.534,0,15.8-.038,2.579-1.505,4.243-4.24,4.889-1.108.262-1.447.579-1.1,1.727a16.11,16.11,0,0,1,.5,3.187c.051.562.415,1.327-.185,1.677-.678.4-1.042-.394-1.449-.785-1.553-1.489-3.13-2.958-4.592-4.535a3.419,3.419,0,0,0-2.814-1.133c-5.963.052-11.926.024-17.889.024-.469,0-.938.008-1.407,0-1.089-.029-2.494-.088-2.921-.96-.4-.814,1.036-1.353,1.577-2.083a4.4,4.4,0,0,1,4.143-1.787c2.873.152,5.76.041,8.641.041" transform="translate(-61.703 -41.735)" fill="#fff"/>
    <path id="Path_648" data-name="Path 648" d="M24.643,68.076c2.008-.214,3.592-.771,4.181-2.984a4.3,4.3,0,0,0,4.4,2.922c-1.305,1.408-2.255,2.518-1.823,4.272.208.845-.521.735-1.024.379a2.319,2.319,0,0,0-2.941.012c-.516.366-1.322.361-1.066-.36.659-1.854-.58-2.84-1.727-4.242" transform="translate(-21.306 -56.277)" fill="#e5e5e4"/>
    <path id="Path_649" data-name="Path 649" d="M115.134,73.082a1.665,1.665,0,0,0-.672-1.754c-1.157-.926-1.172-1.667.464-1.725,1.2-.043,1.558-.783,1.953-1.675.385-.87.879-.927,1.334-.018a3.5,3.5,0,0,1,.33.731c.371,1.588,2.908.289,2.757,1.769-.1,1.012-1.715,1.747-1.283,3.3.322,1.159-.249,1.3-1.173.749a1.884,1.884,0,0,0-2.236-.182c-1.593,1.073-1.838.308-1.475-1.2" transform="translate(-98.25 -58.144)" fill="#e5e5e4"/>
    <path id="Path_650" data-name="Path 650" d="M206.253,69.549c-1.456,1.436-2.509,2.4-1.96,4.073.225.687-.166,1.027-.9.692a.419.419,0,0,1-.163-.117c-1.229-1.679-3.491,1.082-3.782-.3-.324-1.54-.539-2.9-1.911-4.132,1.611-.581,3.4-.579,3.848-2.541.125-.544.688-.429.839.058.543,1.747,1.984,2.138,4.025,2.266" transform="translate(-170.789 -57.809)" fill="#e5e5e4"/>
  </g>
</svg>
